<svg xmlns="http://www.w3.org/2000/svg" width="467.4272" height="469.6543" viewBox="0 0 467.4272 469.6543">
  <defs>
    <style>
      .cls-1 {
        fill: #c30;
      }
    </style>
  </defs>
  <g id="Layer_2" data-name="Layer 2">
    <g id="Layer_1-2" data-name="Layer 1">
      <g>
        <path class="cls-1" d="M377.875,58.2133c-4.11-5.5929-12.5585-8.8921-16.4982-5.689-3.1167,2.5339-6.5162,3.9969-9.9453,5.7905-4.83,2.5258-9.3311,4.148-14.6567,1.923-2.0537-.858-3.715.2557-4.257,2.23-.4822,1.7566.48,2.9039,2.3008,3.8039,4.3308,2.141,8.8556,2.5615,13.5367,2.392.5571,1.6709-.0065,3.239-.3044,4.8772-.8571,4.7151-3.5049,8.8731-3.8463,13.7918-.3179,4.5806,3.7267,13.418,9.3917,13.9262,1.4627.1312,3.2786.8487,4.1234-.46.9149-1.418-.5663-2.8406-1.4832-3.9174a27.9246,27.9246,0,0,0-7.0775-6.198,2.2694,2.2694,0,0,1-1.0138-3.3421c.548-1.1151,1.7364-2.2877,2.7007-1.45,1.8907,1.6427,5.0479.6036,6.3431,3.3841.52,1.1155,1.8491,2.5655,3.14,1.5545,1.6595-1.3-.5037-2.1712-1.0228-3.1962-1.49-2.9424-5.4568-4.5325-4.6254-8.7954.1859-.953-.1729-2.0705.9316-2.5348a1.8993,1.8993,0,0,1,2.4533,1.172c1.217,2.9755,3.6984,3.0818,6.89,3.7088a31.3525,31.3525,0,0,0-6.3343-13.8288c-.0827-6.4068,3.6918-9.8607,9.5167-8.7736,2.6717.4987,3.9663,2.8749,6.0147,4.2147,1.0848,3.4478-.2857,6.4024-1.6949,9.4452-2.1055,4.5465-5.369,8.6854-5.0451,14.1372.3264,5.493,4.5161,9.0994,9.931,7.9963-1.6261-2.0782-3.6289-4.0583-2.22-6.9376,1.9633.046,2.8676,1.4509,3.74,2.51,1.9033,2.3116,4.9055,2.2173,6.1221.8651,1.6654-1.8511-.5207-3.7841-2.2788-5.1345-1.74-1.3368-3.7681-2.5321-3.4706-5.3815,1.9895.16,2.9645,1.3328,4.1647,2.1708,2.2122,1.5446,5.2838,1.761,6.7232.0362,1.486-1.7807-1.1312-3.2236-2.6456-4.492a13.013,13.013,0,0,1-3.8306-5.1435c-.6109-1.5216-1.9566-3.6011-.24-4.3817,1.92-.8732,4.1818.894,4.514,2.8478.7,4.1159,3.4912,5.749,6.8043,7.1074a.3533.3533,0,0,0,.3648.3c5.7951,3.7411,13.1249,1.67,15.6613-4.2892,1.7865-4.1971,4.1-7.94,9.5791-7.5554q-.0641-1.4107-.1271-2.8215c-6.6418-4.1325-6.8186-4.67-3.64-11.1588.6742-1.3763,1.4624-2.8743-.1989-3.9806-1.4486-.9647-3.3962-1.3563-4.5669.1427-2.7119,3.472-6.0818,2.9457-9.8465,2.6772-4.305-.3072-9.7657-1.5643-12.37,2.742-2.7363,4.5251-5.6945,5.2864-10.1013,3.809l0,0Q378.68,58.26,377.875,58.2133Zm23.1517.1583c1.8074.1152,3.6541.084,5.1666,1.339l.0146.0027c2.2255,5.7811,1.1664,10.73-3.7287,14.7074a6.4893,6.4893,0,0,0-3.8956-1.0891,2.4312,2.4312,0,0,1-1.5183.5917,2.432,2.432,0,0,0,1.5181-.5918,2.6609,2.6609,0,0,0-2.5522-1.3184l-.011-.0591.0006,0c-1.4421-1.8763-4.0814-2.6851-4.2182-5.7491C391.5135,59.7327,393.53,57.8937,401.0267,58.3716Z"/>
        <path class="cls-1" d="M420.63,124.4808c.1075-.1164.3172-.247.3033-.3464a4.8633,4.8633,0,0,0-.2654-.8486Q420.6492,123.8845,420.63,124.4808Z"/>
        <path class="cls-1" d="M276.5513,299.3311l.0014,0c.0174-.0066.0352-.0069.0527-.0131l-.0031-.0123Z"/>
        <path class="cls-1" d="M285.8859,365.8c-3.6207-5.7871-7.5724-11.4362-5.4613-18.7994.5089-1.775-.1866-5.0288,3.3143-4.33,2.8367.5665,6.231,1.2591,6.1018,5.1693-.1536,4.65,1.3846,8.9437,2.9011,13.0487,2.1127,5.7191,3.872,12.1591,11.6447,13.4154,3.7064.5991,3.5475-1.2285,3.0812-3.6-.2731-1.3886-1.4432-2.1513-2.6053-2.8654-6.002-3.6885-8.54-9.1932-8.5381-16.1067,0-1.94-.5178-3.8738-.6391-5.82-.3367-5.4029-3.3772-7.9845-8.5553-8.5353-1.9606-.2085-4.5471-.2769-4.9354-2.5363-.508-2.9546,2.6031-2.9523,4.4109-3.7023,7.6559-3.176,11.7-11.5471,8.5609-19.1139-1.4288-3.4436-1.9582-6.6121-.8692-10.1023.4225-1.3541.5117-2.79-.7471-3.6353a2.87,2.87,0,0,0-4.0093.818c-2.5682,3.8918-5.1177,5.0747-8.9457,1.3823-.6169-.595-2.3773-1.7462-3.99-1.17,2.1865,7.1764-2.46,10.77-7.4969,14.2594a15.1024,15.1024,0,0,0-3.8785-5.1153,4.3869,4.3869,0,0,1-1.8121-3.8226c.0988-2.3024,2.2177-5.6511-.7373-6.714-2.8618-1.0292-3.3224,2.9829-4.9145,4.6637-2.459,2.596-4.215,2.7835-5.6152-.809-.24-.6167-.4632-1.2448-.7613-1.8336-.5356-1.0582-1.1147-2.1161-2.6042-1.7922-1.7363.3776-1.2843,1.891-1.1041,2.8155.9077,4.6557-1.1557,8.8136-2.2013,13.0868a13.281,13.281,0,0,0,.0191,4.568c.3537,5.1578,3.1432,8.4649,7.0742,11.3141,1.7809,1.2908,4.4881,2.5686,3.5372,5.3775-.9214,2.7214-3.6417,1.5874-5.6878,1.6272-3.0924.06-6.1437.3295-7.6528,3.5366-1.4081,2.9922-3.2174,5.9247-3.51,9.276A22.2085,22.2085,0,0,1,231.23,365.17c-1.2256,1.0661-3.1653,2.6439-1.5906,4.5889,1.7612,2.1752,4.0888,1.1649,5.7862-.2013,3.7317-3.0034,5.7805-7.18,7.2793-11.6454,1.26-3.7528,2.2948-7.6046,3.8717-11.22,1.2839-2.9436,3.9378-4.7163,7.2369-4.0684,3.5031.688,3.2224,3.7444,3.0572,6.4336a19.7166,19.7166,0,0,1-1.24,6.7523c-3.4223,8.14-9.4991,14.2427-15.3137,20.51a11.7736,11.7736,0,0,0-3.4861,7.819c-.5481,11.492,1.2286,14.1046,12.4974,17.9263,3.5314,1.1977,4.7529,3.1885,3.324,6.8156-1.0325,2.621-1.6313,5.41-2.5391,8.0842-.5432,1.6006-1.5044,3.3423.6886,4.2323a3.41,3.41,0,0,0,4.7383-2.3605c1.0027-3.978,3.0115-7.6714,3.2743-11.8534a12.3564,12.3564,0,0,1,4.449-9.4194c7.3188-6.203,5.12-20.4646-3.2739-23.1264-1.62-.5139-3.4434-.9616-4.5817.6189-1.0382,1.4415.0558,2.6376,1.0411,3.92,6.5507,8.5246,6.5081,9.0392-.0406,17.03l.0165.0046c-11.8754,1.9675-14.8381-1.2253-12.6385-13.0972,1.0785-5.8214,5.5863-9.1745,8.8066-13.448,1.7715-2.3509,5.1814-4.0108,5.8781-6.5286,2.32-8.3853,6.2654-16.7111,4.2578-25.7244-1.41-6.3287,3.2838-9.6517,5.8625-14.0582a1.0763,1.0763,0,0,1,1.6494-.36c5.5153,3.2088,7.8015,10.11,5.6342,16.79-2.9893,9.2133-1.5905,17.8351,3.0611,26.2944,3.4861,6.34,10.7731,9.4911,12.6685,17.36,2.4284,10.0821.782,13.3576-9.9838,14.0825a4.043,4.043,0,0,1-4.5637-2.9414c-1.6928-4.85-3.7784-9.5418,1.0849-14.0768.9782-.9122,2.493-3.587.3631-5.3615-1.7019-1.4179-3.4733.1416-4.3234,1.136-5.8315,6.822-7.7827,13.296-1.5618,21.5974a44.659,44.659,0,0,1,8.1318,16.6752c.8777,3.708,3.5394,5.84,6.6741,7.5176a3.9335,3.9335,0,0,0,5.0208-.9047c1.4622-1.7778-.89-2.526-1.7845-3.3046-3.33-2.9-4.3917-7.1439-6.542-10.7112-1.3295-2.2057.798-4.1525,2.84-4.6165,9.3569-2.1265,14.9565-13.9359,10.5478-22.4552C294.6381,374.3329,289.15,371.0172,285.8859,365.8Zm-28.56-39.6629c-3.3373-.024-6.505-4.9318-6.45-9.9836.032-3.8188,1.9021-5.8471,5.7912-5.8557,2.8258-.0062,7.9583,5.62,7.77,8.48C264.2147,322.1494,260.34,326.159,257.3256,326.1373Zm18.2312-9.2094c.2789-4.7569,2.1636-6.0608,8.2082-5.6786,4.2672.27,6.6168,2.9055,6.2918,7.0577-.2807,3.5844-3.5269,6.66-6.9146,6.5514C279.0327,324.7266,275.3267,320.852,275.5568,316.9279Z"/>
        <path class="cls-1" d="M310.4845,325.8575a23.5392,23.5392,0,0,1-3.0941-15.6,27.3579,27.3579,0,0,0-7.6531-22.2192c-4.6575-4.8211-10.697-6.9811-12.059-15.3662-1.0272-6.3238-8.5487-9.12-15.1527-9.1095-6.7857.0112-14.1065.5-17.562,7.9273-2.1957,4.7195-5.8716,7.425-10.1186,9.8188-12.1075,6.8244-15.2206,17.703-11.5509,30.39a3.5191,3.5191,0,0,1-.81,3.8588,54.0984,54.0984,0,0,0-9.7525,16.3594c-4.0249,11.2082-4.6807,22.97-5.2657,34.6977-.5916,11.86,1.2061,23.5236,3.6606,35.0849,1.6339,7.6963,4.2326,14.922,10.6552,20.1145,1.0861.878,2.1282,1.7508,3.5349.796,1.4006-.9507,1.0773-2.2868.5721-3.5793a25.9559,25.9559,0,0,1-1.1752-2.7472c-1.6214-6.2178-6.7217-10.5629-8.278-17.0535-5.7261-23.8809-5.1821-47.154,4.0225-70.1628,2.4908-6.2262,5.6944-8.339,10.1-1.8613.8583,1.2618,2.0384,2.6516,3.6265,1.849,1.8249-.9221,1.2322-2.7855.8452-4.4409a10.862,10.862,0,0,0-1.53-3.0633c-3.6239-6.1132-6.818-12.2055-6.0729-19.8748.7391-7.6083,6.0212-14.3064,13.8488-15.8475-.5741-1.2094-2.6246-2.0716-2.4382-3.4085-.1863,1.337,1.8649,2.1994,2.4427,3.41.5609.2651,1.1173.5288,1.6749.7935a22.8711,22.8711,0,0,1,3.1361,3.0543c4.8832,6.9647,11.4557,9.0541,19.4873,6.8523,3.6683-1.0056,7.1467-2.3224,10.09-5.0521,3.0115-2.7934,6.1184-3.4713,9.1331.682,2.9743,4.0977,5.24,8.2545,5.9591,13.3756.6553,4.6653-.9028,9.2329-.0758,13.8428a5.1123,5.1123,0,0,0-1.1722,3.8425c-3.5045,1.3436-3.6946,4.2723-2.4885,6.9269,1.4684,3.2324,3.5785.5028,5.3808-.129,2.1265-.7454,4.1532-.8431,4.7346,1.834,1.7516,8.0663,5.4476,15.6078,5.9707,24.0309.4744,7.6395-.3817,15.2949.1048,22.8382.6528,10.12-2.3544,19.2263-5.3819,28.4422-1.1252,3.4256-3.2267,6.5225-4.4728,9.92-.6194,1.6888-1.5089,4.1544,1.1387,5.183,2.063.8014,3.487-.5242,4.3508-2.3357,1.5594-3.2705,3.6084-6.4321,4.48-9.8847,3.8915-15.4165,6.815-30.8681,6.01-47.0473C318.6877,349.8871,317.0637,337.2946,310.4845,325.8575ZM255.0391,281.29a2.4317,2.4317,0,0,1,1.6742-.9379v0A2.431,2.431,0,0,0,255.0391,281.29Zm23.6928,7.9695c-7.5764,4.07-11.4854,4.4569-16.8113-2.4417-1.6886-2.1872-4.715-3.3019-5.192-6.4694l-.0022.0006.0025-.001-.0139.0037c2.2237-7.5333,7.1236-11.5138,15.1136-11.66a12.7743,12.7743,0,0,1,12.3426,8.3822C285.389,280.6024,282.8752,287.0334,278.7319,289.26Z"/>
        <path class="cls-1" d="M371.4144,256.0951c3.0437,2.1532,4.4389,5.0386,6.1253,8.12,3.73,6.8152,6.6377,9.1844,13.648,8.2458,2.63-.3522,5.2239-.5008,7.7277-1.4914,3.16-1.25,5.68-.1507,7.0035,2.8113,2.19,4.9,6.1791,8.72,7.9415,13.8891.7455,2.1866,2.9772,3.4425,5.1181,2.26,2.4124-1.3326.9913-3.6311.0429-5.2392-1.2417-2.105-3.0315-3.8778-4.4292-5.9015-3.0274-4.3831-2.5179-8.9994,1.2942-11.1395,2.1585-1.2118,4.5767-2.6593,2.9805-5.1946-1.8468-2.9333-4.3239-1.0165-6.3392.5367-.6554.5051-1.1763,1.1884-1.843,1.6748-2.7443,2.0022-4.3676.8859-4.9332-2.0621a13.5508,13.5508,0,0,1,.0935-4.45,14.7145,14.7145,0,0,0-16.32-16.7992c-2.3036.27-4.6015.5884-6.9021.8845l-.0064-.014c-1.7189-1.2975-3.8458-.7612-5.7479-1.2585-1.19-.3111-2.757-1.4978-3.5894-.0141-.63,1.1222.284,2.7,1.2248,3.5622,3.6516,3.3476,1.8188,4.6229-1.7891,5.85C368.0889,251.94,367.6848,253.4568,371.4144,256.0951Zm13.5148-7.7179h0q1.5919-.9723,3.1878-1.9466l.3287.254.3665-.1955.0006-.0005c.4786-.0368.9625-.0737,1.4463-.1106a.9761.9761,0,0,0-.7514-.3064.9749.9749,0,0,1,.7514.3064c6.57,1.46,9.8261,6.6927,9.9948,12.6624.14,4.965-4.4831,8.3417-11.3482,8.4007-3.6419.0313-6.9142-3.5861-7.0684-7.7921A21.4569,21.4569,0,0,1,384.9292,248.3772Z"/>
        <path class="cls-1" d="M234.2147,241.8246c4.7918,3.7348,8.4077,8.8205,14.3131,11.3359,5.3988,2.3,5.21,3.8889.4,7.0992-3.4266,2.2868-6.6678,4.8648-9.8895,7.4406-2.1974,1.7568-4.1921,4.3529-1.931,6.7452,2.2679,2.4,4.3293-.7714,5.5343-2.1716,3.0472-3.5414,7.04-5.4536,10.9465-7.5845,1.3811-.7534,3.3529-.4469,4.0938-2.3347l2.8938-1.193c5.5808-2.0916,11.4073-2.6247,17.3043-2.86,2.641-.1055,3.98.4324,4.883,3.4386,2.9778,9.9124,13.33,14.7869,22.3746,10.6937,3.4788-1.5744,6.7748-3.2332,10.7158-2.8553,1.3844.1327,2.7064.1031,2.786-1.8638.0871-2.1543-1.3189-2.3787-2.9257-2.4187-.09-1.0078-1.7192-2.0392.0443-3.0179,2.0723-1.5908,4.2074-3.1062,6.1774-4.8122.686-.594,1.5021-1.8109,1.3142-2.477-.3724-1.3205-1.844-1.1726-2.9849-.9752-3.1858.5512-6.6883.255-7.7806-2.846-2.7107-7.6954-8.3263-9.7967-15.693-10.2947-5.42-.3665-10.1333,1.7466-11.2576,6.9687-.5488,2.5493-1.7739,2.6659-3.721,3.5041-7.6682,3.3011-15.3338,1.0576-23.0061.7162a3.747,3.747,0,0,0,.5327,1.7676,3.7483,3.7483,0,0,1-.5329-1.7678c-.5241-1.075-1.421-.6773-2.2434-.5685-6.8843-3.6183-13.5622-7.416-17.6231-14.5465-.8332-1.463-2.5927-2.518-4.5858-.6148C232.3159,238.2778,232.2036,240.2571,234.2147,241.8246Zm64.2238,4.1632c4.835-.0425,9.1954,5.7414,9.174,12.1692-.0206,6.252-4.19,10.0736-10.8338,9.93-3.8027-.0822-8.7067-5.3816-8.6385-9.3347C288.24,252.9793,293.8481,246.0282,298.4385,245.9878Z"/>
        <path class="cls-1" d="M321.296,275.7831c.3128,2.3089,2.3359,1.3265,3.6441,1.2768a29.85,29.85,0,0,0,4.4011-.8242c3.4306-.6612,5.4091.27,5.5058,4.2456a52.33,52.33,0,0,0,1.29,8.8565c.2942,1.4758,1.1388,3.1209,2.9538,2.63a3.0839,3.0839,0,0,0,1.9985-3.6409c-.4247-2.7911-1.0223-5.5558-1.4961-8.0607.3881-3.95.6138-7.5583,3.1671-10.6021,2.4216-2.8868,4.9438-.1572,7.3455-.4658,8.4231-1.0819,15.665-3.713,13.8982-15.2664-.33-2.16-.099-4.2978,1.8234-5.9059,1.8014-1.5067,1.6424-3.549-.162-4.495-2.32-1.2165-1.9451-2.5424-1.394-4.44.3976-1.3686.88-3.0961-.81-4.0436-1.8537-1.04-2.8684.5211-3.4925,1.7575-1.7387,3.4445-4.6142,3.8611-8.1117,4.27-11.5736,1.3541-16.9316,8.7039-13.7674,18.1931,2.1864,6.557.709,9.3779-5.981,11.2857-2.5536.7281-5.1306,1.3786-7.7117,2.0035C322.6367,272.9841,321.0178,273.73,321.296,275.7831Zm23.3958-26.239c1.381-4.9027,5.7865-3.2876,8.9572-4.34q1.325.6849,2.6507,1.37c1.0211,2.2079,2.6181,4.3323,2.953,6.64.9283,6.3931-4.5378,11.1547-11.0323,10.1048-1.8546-.3-2.804-1.4686-3.7423-2.8939C342.0369,256.7164,343.6683,253.1775,344.6918,249.5441Z"/>
        <path class="cls-1" d="M214.79,400.8821c.5028-2.1811.8563-4.3555-.2307-6.48-.4489-4.4348.3492-9.0234-.3525-13.2951-2.0138-12.26-.26-24.3772.8848-36.4371,1.0462-11.0184,3.9224-21.8511,5.6368-32.8212,1.9478-12.4634-7.01-23.1492-19.4745-22.4738-9.1166.4939-18.1326,2.6627-27.2254,3.8383-6.746.8722-13.2234-.7906-19.6685-2.6718-4.7748-1.3937-8.1434-4.77-11.968-7.5683-1.5728-1.1509-3.82-2.0749-5.2327.3129-1.503,2.54.7446,3.6108,2.4383,4.5367,3.399,1.8584,7.3205,3.001,10.2826,5.3691,6.2757,5.0173,13.76,5.842,20.9458,5.5441a133.9616,133.9616,0,0,0,26.44-3.9876c9.7418-2.402,19.3647,7.103,17.5116,16.7945-2.7045,14.1437-3.8938,28.4524-5.2772,42.7568-1.3482,13.9412-.361,27.8653-.4062,41.7967a2.8634,2.8634,0,0,0,1.3151-1.4911,2.8686,2.8686,0,0,1-1.3161,1.4933l-.5767,1.0673c-3.1439.3578-3.4322-3.0868-5.5154-4.1417l.0155-.0743a11.042,11.042,0,0,0-1.2216-3.2189c-.9878-1.2316-1.2845-3.96-3.9087-2.6406-2.1155,1.064-1.58,3.1337-1.2354,4.8629.5149,2.5865,1.4026,5.0967,1.9747,7.6742a15.9851,15.9851,0,0,1-5.366,16.3315c-4.0127,3.4931-8.7315,3.332-13.5174.9251a12.0965,12.0965,0,0,0-5.3666-.8789,8.1108,8.1108,0,0,1-5.3774-2.1831c-12.4463-10.2355-28.4828-10.3088-40.686-.4435-2.536,2.05-5.4543,4.687-3.45,7.1391,2.3213,2.84,5.5312.3716,8.0736-1.8463,9.04-7.8853,20.9964-8.7246,27.9054-4.2462,4.4882,2.9092,9.3314,4.9,14.0689,7.2112,5.8727,2.8646,12.0687,2.308,18.0042,1.1346,4.6526-.92,8.562-3.5643,9.3394-9.2785.4345-3.193,2.0289-6.2281,3.1006-9.3344l.2789-.0925c2.6885.4546,4.5787,2.26,6.5758,3.8837l.1973.356c.34,4.2282,2.7431,7.7116,4.25,11.51.5415,1.3653.957,3.7774,3.117,3.144,1.9916-.584,2.7993-2.7387,2.8069-4.7554a9.13,9.13,0,0,0-1.1018-3.7493C219.3049,409.9029,217.0279,405.401,214.79,400.8821Z"/>
        <path class="cls-1" d="M75.3021,210.718c-.7272-6.2015-4.9839-11.5025-4.0241-18.2413.8382-5.8854.7695-11.8734,3.617-17.3449.89-1.71,1.1255-3.8914-1.0455-4.7242-2.2182-.8509-2.7388,1.3536-3.1927,2.87-3.0959,10.3437-5.9912,20.8614-2.5525,31.5635,1.3121,4.0839,2.0039,8.2593,3.2311,12.3274,1.3334,4.42-1.1354,7.4742-4.5867,9.4446-3.6184,2.0656-6.628-.1794-8.3149-3.1124-4.3072-7.489-7.8421-15.1822-5.5508-24.3852,1.5487-6.22,2.7889-12.503,4.87-18.5919.4134-1.21,1.0987-3.3-.6549-3.9991-1.9141-.7627-2.55,1.2893-3.0066,2.5694-2.72,7.6209-5.8231,15.164-5.9261,25.9945-.84,5.3637,2.0339,12.5628,4.7,19.6383,1.2242,3.2483,2.3871,8.0365,7.6571,7.3885,13.24-1.6278,16.7948-3.5271,15.705-17.0274C76.1088,213.6163,75.4749,212.1909,75.3021,210.718Z"/>
        <path class="cls-1" d="M65.9615,172.4088c4.8636-4.6629,10.8129-7.7729,16.1176-11.7933,2.9413-2.2293,3.7073-5.323,4.5082-8.4116-.3266-1.8023-.6107-3.4418-.9218-5.0761-1.2768-6.7061-4.95-8.8738-11.4886-6.7313-2.0425.6692-4.08,1.3831-6.0521,2.2323-5.7822,2.4893-11.9547,4.1784-17.0133,8.1718-1.2027.95-2.4971,1.9384-1.3087,3.6908.9232,1.3613,2.0846,2.0984,3.7881,1.081a37.9676,37.9676,0,0,1,3.5274-1.7447c5.2165-2.42,10.2311-5.2686,15.7181-7.1151,3.3891-1.1405,5.7672.854,7.265,2.9916,1.7033,2.4309-.3879,4.6566-2.3184,6.3675-4.6838,4.1507-9.5828,8.0371-15.4656,10.3444-2.3714.93-3.3056,2.7826-2.22,4.4811C61.2455,172.6926,63.6572,174.6182,65.9615,172.4088Z"/>
        <path class="cls-1" d="M232.55,199.6917c2.6525-2.3929.1786-4.537-1.5679-6.2526-2.8391-2.7885-5.7967-5.4611-8.7876-8.0878a6.3243,6.3243,0,0,1-2.4349-3.6624c-.945-6.7124-3.375-13.1943-3.1521-20.0823.7037-8.5089-1.553-16.3791-4.9349-24.0675-.7574-1.7221-.3321-4.59-3.1579-3.9583-2.9592.6618-1.5561,3.1254-1.0208,4.9456,2.7136,9.2273,4.8941,18.4514,5.3785,28.21.3308,6.663-.0474,13.9624,5.2845,19.6755,3.1234,3.3466,5.3354,7.5287,8.3122,11.0337C227.9027,199.1338,229.8716,202.1081,232.55,199.6917Z"/>
        <path class="cls-1" d="M147.6074,404.0608c3.1753.5958,6.3958.9006,9.0384-1.3684,3.4-2.92,6.4826-2.179,9.7828.1456a59.2972,59.2972,0,0,0,8.7762,5.4866c8.1034,3.7912,18.9539-2.89,18.3756-11.1189-.6054-8.6159-12.7426-16.3164-21.2391-13.5748-1.8748.6049-3.0979,1.7688-2.792,3.5173.3327,1.9025,1.7834,2.9141,4.03,2.4941a23.5346,23.5346,0,0,1,5.4648-.3314c4.1458.21,6.4929,3.1494,8.117,6.3875,1.1283,2.25-.0365,4.7086-2.03,6.1879-3.05,2.2634-6.2791,3.367-9.8414.6062-3.376-2.6164-6.9642-4.9589-10.4591-7.4219q-.54-1.3577-1.0812-2.7181c.2727-4.333.2176-8.5059-4.9713-10.1717-1.036-1.3673-2.1527-1.3564-3.3362-.192-1.6756-.6608-2.775-2.6526-4.7531-2.46-5.8347.5685-11.3044-1.3558-16.9139-2.5441-.6333,1.58.3566,2.604.9183,3.3393,2.31,3.0249,3.5353,5.3286-1.7785,6.2666-1.9646.3468-2.0047,3.0234-.8226,3.4285,3.94,1.3506,4.1332,4.9314,5.9025,7.6916,1.727,2.6942,3.7364,5.9656,7.7049,6.3467q.0308-2.0667.0616-4.1333c-1.4884-3.9918-1.407-8.0944.8134-11.5947,2.1975-3.4644,5.6578-3.5469,8.8633-1.0959,2.9957,2.29,2.8693,4.9042.2658,7.5451-.2652.269-.1156.9468-.1585,1.4349-2.1543,4.1555-6.4924,2.5533-9.784,3.7106q-.0308,2.0667-.0614,4.1334Z"/>
        <path class="cls-1" d="M191.5718,233.589c1.6888-1.187,2.1055-2.4476,1.0594-4.6-3.1784-6.5384-3.5444-13.7072-3.8942-20.8173a16.948,16.948,0,0,1,2.6752-9.9314c5.0744-8.1605,2.7943-16.4389.3169-24.7006a2.1147,2.1147,0,0,0-3.0861-1.5461,2.5191,2.5191,0,0,0-1.6362,3.2284,24.2589,24.2589,0,0,0,1.8789,4.56c1.9665,3.7876,2.57,7.8963.407,11.4741-4.0359,6.6755-4.57,13.9942-5.3045,23.3859.5217,4.5308,1.1191,11.0169,4.1836,16.9432C188.8045,232.81,189.0764,235.3429,191.5718,233.589Z"/>
        <path class="cls-1" d="M396.6336,371.183a6.799,6.799,0,0,0-.1027,2.4839c.1939,1.5308-.6364,3.817,1.584,4.1879,2.6253.4385,2.6151-2.3784,2.9406-3.7933,1.2816-5.5716,1.8058-11.2036.4689-16.9416-.8151-3.4981.3381-8.4732-1.68-10.4534-3.8012-3.7292-4.967-8.4964-7.5-12.6535-1.41-2.3137-2.9391-3.4262-5.9615-2.134,1.2727,2.9652,2.2128,5.6117,3.5,8.0763C395.0046,349.7575,399.59,359.6379,396.6336,371.183Z"/>
        <path class="cls-1" d="M238.806,122.8812a89.5621,89.5621,0,0,1,14.463,8.3678c3.8861,2.6839,7.9163,5.414,13.2264,6.0531.9661.03,2.41.1328,2.8747-1.5391.4658-1.6741.5023-3.4255-1.2737-4.38a43.4157,43.4157,0,0,0-5.8844-2.621,77.722,77.722,0,0,1-20.281-11.2341c-1.6669-1.2464-3.22-2.4416-5.3684-1.8352-1.4991.4231-1.01,1.87-1.1439,2.9473C235.1008,121.1958,236.93,122.0471,238.806,122.8812Z"/>
        <path class="cls-1" d="M259.7113,96.9483c2.4507.5159,4.8923-.8759,7.4753-1.382,2.229-.4367,5.069-1.0468,4.3394-4.23-.74-3.2306-4.0472-2.67-5.7806-1.8889-7.9464,3.5819-14.1262.3137-20.1683-4.3282-1.5437-1.186-3.4422-2.8619-5.2188-.9656-1.9077,2.0363-.03,4.0194,1.2226,5.6455C246.09,95.6517,252.5708,96.7812,259.7113,96.9483Z"/>
        <path class="cls-1" d="M57.217,142.4817a58.6249,58.6249,0,0,0,20.1511-7.5255c2.311-1.3752,4.6614-3.213,2.873-5.8085-1.7329-2.5149-4.5988-.9365-6.6128.4287-6.0913,4.1288-12.3037,7.7882-19.98,7.8679-2.6881.0279-2.5095,1.5124-1.4864,3.2964C53.1454,142.4563,54.79,142.5687,57.217,142.4817Z"/>
        <path class="cls-1" d="M337.0928,136.6344a114.7828,114.7828,0,0,0,9.8235-8.0027c.8522-.7771.9162-2.4184,1.3061-3.5582-.3841-2.8372-3.037-3.1269-3.9982-2.0711-3.2935,3.6181-8.3443,5.0688-11.0216,9.2328-.6837,1.0634-2.1088,2.4561-.6593,3.9963A3.336,3.336,0,0,0,337.0928,136.6344Z"/>
        <path class="cls-1" d="M340.7026,102.843a12.3629,12.3629,0,0,1-6.6349,3.0564c-3.0807.2673-3.2047,2.3223-3.4683,5.0484-.4786,2.2108,1.3112,3.0064,3.2268,2.3056a67.49,67.49,0,0,0,11.1722-5.1643,3.67,3.67,0,0,0,.9318-5.676C344.2561,100.3954,342.3278,101.5158,340.7026,102.843Z"/>
        <path class="cls-1" d="M141.3734,333.44c6.044-.1393,12.4118-1.4407,17.2682-6.0055l2.933-.165c7.0807,4.1695,14.3378,4.3258,21.7742,1.005,2.28-1.018,3.31-3.1926,4.2731-5.1342.6175-1.245-1.2167-2.2475-2.3523-2.7908-2.4741-1.1836-4.0067.4819-5.3623,2.2122-1.5624,1.9945-3.8764,2.5716-6.1,3.0364-4.0466.8459-6.2641-2.2925-7.8-4.9875-1.4845-2.6048.985-5.08,3.2-5.8856,8.2486-2.9973,16.4781-6.9773,25.5234-2.1333,5.3108,2.8442,6.961,11.2133,2.4535,15.1472-6.15,5.3674-13.3444,7.17-21.5854,6.8336-10.9262-.4463-22.0155-3.3307-32.7554,2.1831-5.4494,2.7978-9.5713,5.7617-9.79,12.4178-.0921,2.8-.9729,5.568-1.1557,8.3728-.6964,10.681,6.59,19.1113,17.3131,20.2132,16.8676,1.733,34.2909-.9911,50.4772,6.34,1.262.5715,2.6411-.3634,3.3517-1.5916.7766-1.3422-.3455-2.12-1.191-2.9037-3.5525-3.2924-8.3548-3.4035-12.6241-4.72-11.307-3.4863-23.0836-1.9654-34.6545-2.7282-5.7064-.3762-12.2266-.1672-14.9551-6.77-7.0176-16.9821,3.33-27.3548,19.2337-26.8176,8.7515.2956,17.5365.3361,26.2967.5947,7.2384.2136,13.2182-3.1169,17.8791-8.6054,6.0483-7.1224,2.4269-24.4681-8.8-24.498-7.4774-.02-15.0868-1.03-22.4942,1.7845-4.2342,1.6085-8.7016,1.9052-11.8316-2.9775-1.4591-2.2761-4.2046-2.8248-6.933-3.4122-3.6768-.7916-6.8475.8682-10.2716,1.0935a.74.74,0,0,0-.6233-.4741c-.032-2.6437-2.12-4.4586-2.7658-6.8572-.3968-1.4747-1.212-2.4139-2.8672-1.8-2.0646.7652-.9085,2.12-.4447,3.2443,1.4582,3.5352,1.2492,5.8849-3.5083,5.4818-.891-.0754-2.2036-.1772-2.5553.9887-.3449,1.144.8619,1.5554,1.5209,2.2508,1.7881,1.8866,5.4453,2.266,5.8375,4.8712,1.1164,7.4154,4.5062,12.5265,12.9387,14-3.7648,3.4532-6.5845,5.5382-11.2153,3.8463-4.6466-1.6976-5.0954-5.1027-5.1065-9.07-.0028-.992.0352-1.99-.0572-2.9747-.1342-1.43-.7208-2.5569-2.3321-2.7809-1.67-.2323-1.7619,1.1572-2.1605,2.1662C126.2543,323.29,131.2523,333.6726,141.3734,333.44Zm4.5909-16.4611c-1.755-1.9224-2.8336-4.303-1.7907-6.7291.9063-2.108,1.77-5.0351,4.9-4.7829,3.6238.2917,7.2479,1.096,8.9473,4.932a16.0262,16.0262,0,0,1,.6849,3.8188c-.94,1.7224-2.5706,2.7062-4.08,3.8177C151.5982,318.8227,148.5308,319.79,145.9643,316.9784Z"/>
        <path class="cls-1" d="M367.6041,309.8583c-.1325,1.5688.6717,3.6128,2.6256,3.4886,2.5467-.1618,3.6326-2.3538,4.3274-4.2068.1068-2.2949-1.1067-3.0655-2.7065-3.1089A3.8972,3.8972,0,0,0,367.6041,309.8583Z"/>
        <path class="cls-1" d="M395.1068,216.6147c-3.2-.0882-4.5054,2.5164-4.5213,5.415-.0168,3.068,1.94,4.3159,5.0577,4.2636,2.96.3105,4.6243-1.577,4.727-4.2755A5.0721,5.0721,0,0,0,395.1068,216.6147Z"/>
        <path class="cls-1" d="M398.3889,145.13c3.5914.5111,4.0234-2.0531,4.1292-4.3072.122-2.598-2.0334-3.17-4.128-3.1741-2.8844-.0063-3.3455,2.0537-3.5033,4.3906C394.6976,144.84,396.1918,145.4758,398.3889,145.13Z"/>
        <path class="cls-1" d="M81.0723,384.9349c-.6009-1.4936-.6519-3.6964-2.9261-3.3386-2.2188.3488-5.0149.7193-5.38,3.5405a3.0563,3.0563,0,0,0,3.125,3.6484C78.2434,388.6313,80.4066,387.65,81.0723,384.9349Z"/>
        <path class="cls-1" d="M120.5633,266.3024c-1.9625-.2159-3.3411.7526-3.3766,2.7484-.0348,1.9592.7693,3.6329,3.13,3.707a4.5649,4.5649,0,0,0,4.6772-3.0984A4.8789,4.8789,0,0,0,120.5633,266.3024Z"/>
        <path class="cls-1" d="M59.2325,261.9069a4.6132,4.6132,0,0,0-.73.0042c-2.4387.1946-2.8262,2.1014-2.8308,3.8789a2.5128,2.5128,0,0,0,2.8877,2.6267,4.4393,4.4393,0,0,0,.8232-.0921c1.7257-.3714,2.1352-1.8012,2.2431-3.5171C61.5255,263.0837,60.8105,262.0313,59.2325,261.9069Z"/>
        <path class="cls-1" d="M86.1334,266.12c.0827,1.8162,1.3213,2.9079,3.3545,3.2212a3.6377,3.6377,0,0,0,2.5867-3.5672c.1382-2.0364-1.265-2.4828-2.8181-2.5485C87.3288,263.1434,86.0447,264.1718,86.1334,266.12Z"/>
        <path class="cls-1" d="M122.8594,97.0889a3.99,3.99,0,0,0-4.0421,4.1273,3.6647,3.6647,0,0,0,3.37,3.9527c2.6239-.54,4.7863-1.3208,4.8939-4.2825C127.1855,98.0162,125.0667,96.97,122.8594,97.0889Z"/>
        <path class="cls-1" d="M68.6716,82.5085a2.5543,2.5543,0,0,0,2.9922-2.5037c.3185-2.3944-1.7044-2.3656-3.3565-2.9506-1.2884.0776-2.4693.6457-2.5189,2.2116A2.85,2.85,0,0,0,68.6716,82.5085Z"/>
        <path class="cls-1" d="M400.3,68.6525a3.8979,3.8979,0,0,0,3.3432-3.7879c.0461-2.3344-1.5539-3.632-3.7711-3.8153-2.1814-.18-2.8379,1.2546-2.7065,3.21C397.3077,66.38,397.9329,68.1342,400.3,68.6525Z"/>
        <path class="cls-1" d="M173.64,76.9515c.9851.1424,1.0869-1.0179,1.2737-1.8612a2.67,2.67,0,0,0-2.5959-2.4958c-.9748-.0637-2.2953.37-1.9051,1.6A4.05,4.05,0,0,0,173.64,76.9515Z"/>
        <path class="cls-1" d="M200.4722,76.1c2.7434.0262,3.8468-2.4863,5.2954-5.79-2.7369.49-5.4716-1.2774-6.0393,2.5021C199.5512,73.9908,198.7921,76.0836,200.4722,76.1Z"/>
        <path class="cls-1" d="M199.93,256.0308a2.9252,2.9252,0,0,0,2.9331,3.3509c2.2578-.0417,4.8934-.2643,5.1925-3.3775a2.69,2.69,0,0,0-2.6825-3.2313C202.0812,252.463,200.2191,253.539,199.93,256.0308Z"/>
        <path class="cls-1" d="M297.66,157.877c.2847,2.8663,1.5011,5.273,4.5312,5.3272,2.7235.0487,3.9688-2.0376,3.7836-5.09-.0933-2.5122-1.2075-4.4122-4.3369-4.4264C298.8494,153.6754,297.3641,154.8953,297.66,157.877Z"/>
        <path class="cls-1" d="M301.1866,124.7882a4.089,4.089,0,0,0-4.4256,4.2557c.07,2.5226,1.7451,4.0486,4.4228,4.362,3.509.4108,3.1722-2.5376,4.1961-4.8894C304.8085,126.659,303.4391,124.8229,301.1866,124.7882Z"/>
        <path class="cls-1" d="M285.199,318.9362a2.03,2.03,0,0,0-2.3629-2.3811c-1.602.1417-2.972,1.0939-2.9538,2.6481.0177,1.5066,1.466,2.3434,3.0808,2.9009C284.6177,321.7772,285.0869,320.3088,285.199,318.9362Z"/>
        <path class="cls-1" d="M258.0583,314.8691c-2.1157-.1682-3.7557.68-3.7984,2.8872-.0424,2.1987,1.7685,3.2358,3.6965,3.2083,2.3065-.0328,2.7756-1.9337,2.9318-3.8753C261.0634,314.9129,259.8111,314.59,258.0583,314.8691Z"/>
        <path class="cls-1" d="M272.0864,277.4116c-2.2424-.2216-4.6158.4807-4.79,3.1931a5.0845,5.0845,0,0,0,4.6729,5.5375c3.8449.5725,3.5106-3.14,4.7916-5.418C276.3569,278.0992,274.11,277.6116,272.0864,277.4116Z"/>
        <path class="cls-1" d="M151.15,309.1669c-1.4225.4909-3.5768.7-3.4343,3.1071.1244,2.1023,1.46,3.1572,3.7382,2.96,1.8-.1554,3.3586-.3724,3.3121-2.6862C154.7217,310.3729,153.7087,309.1356,151.15,309.1669Z"/>
        <path class="cls-1" d="M176.4,245.3532c-.1087-3.1042-2.5842-4.8024-5.2782-4.9833-3.02-.2028-3.8724,2.4948-4.4606,5.4014.9661,2.4895,3.5239,2.6755,5.8321,2.96C174.8315,249.02,176.4781,247.5985,176.4,245.3532Z"/>
        <path class="cls-1" d="M89.9515,108.2334c-.2686-2.0646-1.16-3.9935-3.82-3.9257-2.1237.0542-3.9865,1.2012-4.1012,3.4939-.1387,2.7744,2.0677,3.4284,4.3243,3.6115C88.4109,111.58,89.9205,110.9154,89.9515,108.2334Z"/>
        <path class="cls-1" d="M200.5551,343.2251c2.5333-1.5729,7.1519-3.2908,5.4736-6.0723-1.6918-2.8039-5.986.038-9.037,1.0735a7.5494,7.5494,0,0,0-2.1368,1.1311c-4.9033,3.7613-10.7757,4.3277-16.3809,3.5685a145.7638,145.7638,0,0,0-18.8516-.9725,17.428,17.428,0,0,0-10.3679,2.947c-4.1584,2.9382-6.9584,7.1338-4.4217,11.9216,3.9073,7.3748,8.98,11.4773,17.7281,10.0819,2.8777-.459,5.87-.4015,8.8026-.6546,4.711-.4064,9.7445-.4356,13.7632,3.0338.796.6872.8561,2.5662,2.4039,1.9531,1.9405-.7687.4138-2.2544.342-3.426-.11-1.79-.8348-3.835,1.1015-5.0114,2.107-1.28,3.9345.1623,5.403,1.4027,1.8912,1.5973,3.4015,3.6369,5.18,5.38,1.0333,1.0131,2.2118,2.4946,3.8266,1.6253,2.1422-1.1531.7169-3.0591.2364-4.4353-2.0939-5.9976-8.5326-11.1462-16.0716-9.1863-3.03.7879-6.045,1.7179-9.1266,2.2066-3.6017.5712-8.0305,1.891-6.8449-4.7681.15-.8416-.56-1.8735-.9748-2.7693-.554-1.1961-1.6368-2.5937-.3849-3.6156,1.544-1.26,2.7768.2072,3.7264,1.3188,2.4943,2.92,5.2793,5.33,9.9012,6.3272-1.5969-2.8582-1.0041-5.4969-1.2884-8.0664l1.0631-.9914q9.5334-2.0484,12.8138,7.134a2.531,2.531,0,0,0,.9017,1.1624c.9846.6714,1.6538,2.64,3.1883,1.4064,1.21-.9724,2.2968-2.3706,1.257-4.2408-.8071-1.4518-1.3965-3.0358-2.2967-4.4221C198.1038,346.1428,198.4791,344.514,200.5551,343.2251Zm-41.6815,3.0895c-1.5132-.1207-3.0736.003-4.6151.0053C155.8,346.3175,157.36,346.1936,158.8736,346.3146Zm-4.4263-1.2238a8.9,8.9,0,0,0-1.7407,1.1761h0A8.9034,8.9034,0,0,1,154.4473,345.0908Zm-1.801,1.2041a4.2365,4.2365,0,0,0-1.3979.3159A4.2359,4.2359,0,0,1,152.6463,346.2949Zm10.0907,14.0372-.0317.0266a35.8913,35.8913,0,0,1-5.8107.1125c-6.6724-.9205-5.5853-6.3213-6.0193-10.81q.8548-.1581,1.7127-.32c3.2963-.0006,6.5891-2.7484,9.8461,1.1492C165.4124,354.054,164.6533,356.9955,162.737,360.3321Z"/>
        <path class="cls-1" d="M157.4232,352.4705c-1.2937-.1247-2.7687.1031-2.6769,2.02.1236,2.5789,2.3279,2.3,3.5558,2.7276,1.7249.2267,2.83-.2073,2.8305-1.6449C161.1342,353.2187,159.2568,352.6473,157.4232,352.4705Z"/>
        <path class="cls-1" d="M389.9868,262.5247a4.8339,4.8339,0,0,0,5.1972-4.31c.37-2.5508-1.5589-3.6306-4.0316-3.92-3.6326-.4248-3.2429,2.4034-4.0165,5.0018C387.05,260.8377,387.6535,262.4618,389.9868,262.5247Z"/>
        <path class="cls-1" d="M318.8752,67.8331c.15-3.2055-1.4481-4.5836-4.39-4.3895-3.1618-.1445-4.7573.9382-4.8831,4.27-.1505,3.9878,2.4,4.7869,5.3394,5.0781C318.5751,73.1514,318.7527,70.4425,318.8752,67.8331Z"/>
        <path class="cls-1" d="M297.9675,262.8417c1.4873-.3391,3.5843-.7471,3.2135-2.73-.3664-1.9591-1.534-4.0935-4.1073-4.29-1.8829-.1438-3.24.6384-3.264,2.7421C293.7791,261.2065,295.5092,262.2722,297.9675,262.8417Z"/>
        <path class="cls-1" d="M350.7258,258.5692c2.5352.2072,3.9577-1.141,4.8554-3.3176-.61-2.0855-1.5872-3.8317-3.9376-3.8781-2.4687-.0487-4.03,1.1626-4.2165,3.8412C347.2574,257.6492,348.65,258.4,350.7258,258.5692Z"/>
        <path class="cls-1" d="M150.6491,389.2356c-2.2222.17-3.4034,1.9147-3.219,4.154a3.1293,3.1293,0,0,0,3.6387,3.17c2.2026-.2458,3.6017-1.5758,3.4519-4.4109C154.7443,389.6687,152.6519,389.0828,150.6491,389.2356Z"/>
        <path class="cls-1" d="M0,0V469.6543H467.4272V0ZM420.9025,233.9354c-1.59-1.1391-2.6078-1.9075-3.664-2.6193-7.6466-5.1529-7.5512-6.9022.66-11.5081.5729-.3214,1.1923-.56,1.9268-.9,2.2882,2.9356-.0542,7.0669,2.3106,10.0373C422.2418,228.5833,420.53,231.9464,420.9025,233.9354Zm-35.0284-25.6729a12.0245,12.0245,0,0,1-8.6087.0449c-3.1671-.9794-5.2-2.5253-5.3691-6.0281-.0291-.6036-.431-1.5931-.8566-1.7139-8.1247-2.3048-2.9329-7.8374-1.7664-10.866,2.3792-6.1771,3.1784-12.4312,3.5354-18.81a143.7633,143.7633,0,0,0-.277-15.3764c-.1071-2.084.3882-3.7156,2.2019-4.5954,2.19-1.0624,6.0661-1.237,6.4944.0355a38.3149,38.3149,0,0,1,2.2206,7.9444c.5811,5.4858-.81,10.8918-1.2448,16.34-.2372,2.9708-2.3391,4.6643-5.2368,5.2658-2.2331.4634-4.46,1.1735-3.529,4.053.7191,2.2231,2.5569,3.2973,5.1052,2.9217,1.7713-.2612,4.23-2.57,4.8407,1.4765.6043,4.0061-2.6927,3.5516-4.7466,4.0138s-4.3021.0027-6.457.1095c-.9248.0457-2.0984.1289-2.4312,1.31a2.2339,2.2339,0,0,0,1.5973,2.7564c3.1695,1.0721,6.1142,2.9634,9.8737,1.4273,3.5218-1.439,7.0562-2.106,10.62,1.09,4.1878,3.7558,9.84,3.5493,15.1034,3.433,3.0514-.0674,7.6693-8.8918,7.2594-13.6-.4153-4.7714-.5146-9.5982-2.3894-14.1715-2.7193-6.6334-.58-11.9858,4.7828-16.323a9.5124,9.5124,0,0,0,2.2582-1.8752c.6934-1.1068,1.2823-2.6234.4929-3.7634-.9018-1.3027-2.3849-.7721-3.6289-.1775-5.87,2.8051-14.0592,14.9817-10.6729,21.9556,2.3285,4.7952,1.3193,10.4473,2.1741,15.6835.5891,3.6089-4.0794,6.2553-7.8365,5.7055-6.2593-.9161-8.6112-4.4588-9.85-10.4758-2.0006-9.7208-.4769-19.2166.117-28.808.1183-1.9114,1.0381-3.539,3.05-3.0248,2.9173.7457,5.3764-.4885,8.0614-.8965,10.2213-1.5531,13.4007-5.274,13.1358-15.7808-.0521-2.0683-.8283-4.2729.7965-6.21,2.04-2.4314,3.9182-2.7973,5.7769.1113.3314,13.5553,1.5513,27.1641.74,40.6507-.8,13.2975-.2705,26.5312-.4081,39.7906-.0227,2.194-.5208,3.36-2.9544,3.493a7.7545,7.7545,0,0,0-3.6135,1.44c-2.5762,1.7214-4.09.8549-5.652-1.5351C402.2454,205.5886,396.516,203.8492,385.8741,208.2625Zm12.617,23.2545c-3.8121,1.6214-6.483-1.195-9.3369-2.93-2.2289-1.3553-3.1594-4.1652-5.6408-5.3q-.0561-1.924-.1124-3.8474c.6023-1.1291,1.894-1.538,2.452-2.8947,1.5294-3.7193,4.4276-5.7338,8.562-4.8764,5.8218,1.2072,8.37,4.2507,9.2215,9.317C404.4661,225.9207,403.1447,229.5375,398.4911,231.517ZM384.1266,141.66a3.7876,3.7876,0,0,1,1.0339-.2981A3.79,3.79,0,0,0,384.1266,141.66Zm5.5052-4.4878c1.2-3.6009,3.3816-5.866,7.4973-5.5281,2.4908.2045,4.9844.3747,7.4767.56l2.6268,2.3849c.991,5.7645.8,10.7687-5.2682,14.2869-4.07,2.36-7.2721,1.5335-10.2687-.91C388.2213,145.1334,388.3016,141.162,389.6318,137.1721Zm30.852-12.0735c-2.1645,2.3825-5.4417,1.9832-8.0626,3.2245a2.1291,2.1291,0,0,1-1.896-1.972c1.185-2.46,2.3964-4.9073,3.5448-7.3839a2.936,2.936,0,0,0-.92-3.56c-1.432-1.31-2.54.0754-3.372.862-2.0388,1.9281-3.1369,4.53-4.3727,7.0083q-.502.4878-1.004.9754c-7.7581-.7134-14.0794,2.0573-18.56,8.3415-2.0322,2.85-3.2563,6.277-4.8469,9.4422a.42.42,0,0,0-.4182.3191c-5.81,1.83-11.86.4746-17.7811,1.3909a83.9024,83.9024,0,0,0-19.7941,5.9007c-2.0952.8842-3.41,3.8565-4.8112,6.047-.6851,1.071-1.2906,1.7447-2.5241,1.6173,1.02-2.1949,2.19-4.3363,2.9981-6.6065a7.6563,7.6563,0,0,1,4.55-4.845c8.74-3.4781,18.3322-5.0471,25.6957-11.6214a4.0073,4.0073,0,0,1,2.8043-.6305c9.5953,1.0392,15.5075-4.7242,21.0329-11.2439l1.8063-1.7815c2.7083.1649,3.5-1.8309,4.3022-3.8151l.095-.0759c2.792-2.5128,5.907-4.7089,7.8734-8.0309l.0236-.0163q3.42-.4025,6.87-.7918,3.6162-.4082,7.2038-.795a5.735,5.735,0,0,0,.1285-4.3309,6.2075,6.2075,0,0,0-4.7267-.3971c-7.1241-2.303-13.1294.3239-18.83,4.2842-4.2857-.5721-8.5542-1.0549-12.7521.5861-1.5506.606-3.4372.9474-3.1812,3.1073.2268,1.9138,1.697,2.7036,3.5851,2.724a18.7587,18.7587,0,0,1,2.4824.1668c.9842.1426,2.1715.3106,2.2776,1.5074a2.2162,2.2162,0,0,1-1.678,2.235c-3.2257.7938-6.5883,1.395-9.7879.3262-2.2543-.7531-4.5289-2.9249-3.8484-5.1369.7154-2.3256,1.0334-5.942,4.62-6.3061,9.3045-.9446,17.7735-4.4041,26.4379-7.6454,4.3967-1.6448,9.3945-3.131,14.452-2.7078,1.8314-1.99,1.5967-4.2273.7807-6.5379a20.1077,20.1077,0,0,0-11.2813.6117c-13.73,4.9588-26.9435,11.5027-41.6257,13.518-1.384.19-2.7322.255-2.6331,2.1686a1.7713,1.7713,0,0,0-.7179.2357,59.6521,59.6521,0,0,0-31.5507,12.2784c-1.6979,1.3125-1.4845,2.5311-.4214,4.2482,1.0747,1.7358,2.189,1.8625,3.6694.9218,1.2487-.7935,2.3254-1.871,3.6053-2.6,7.2563-4.131,14.5452-8.2156,22.9571-9.5738,1.5482-.25,3.208-.2811,3.3637,1.8277a2.8014,2.8014,0,0,1-2.3889,3.2706c-1.4443.1988-2.9535-.1307-4.4223-.0392-1.93.12-4.35-.1348-4.5822,2.6344-.2137,2.5484,1.8256,3.2772,3.8729,3.6907,1.9323.39,3.8838.6858,5.8268,1.0231.4877,3.799-1.9877,4.2269-4.8263,4.2418a9.1031,9.1031,0,0,0-2.381-1.6351c-2.3984-.6835-4.7139-.5683-5.5527,2.3613-.9637,3.3661,1.7731,2.5295,3.4811,2.9785a17.1735,17.1735,0,0,1,3.0778,1.48.7681.7681,0,0,0,.0676.6739c-3.5991,3.6976-8.6382,3.8617-13.1463,5.2589-5.954,1.8453-10.35,5.7145-14.0313,10.4558a6.2769,6.2769,0,0,0-.6965,6.61c1.0212,2.2368,2.9259,2.2137,4.9215,1.8631a15.8512,15.8512,0,0,1-1.0359,3.1118c-3.5719,6.3928-6.2129,12.7324-5.5885,20.5627a141.5385,141.5385,0,0,1-.0546,22.6975c-.6315,7.6429.235,15.1355.105,22.6917-.0293,1.7065.3375,3.5289,2.5683,3.5368,2.271.0079,3.7839-1.1544,3.8808-3.62.1042-2.6516.2477-5.3058.2209-7.9573-.027-2.6832.9406-4.3578,3.7242-5.0353,2.65-.6451,6.6106-1.2414,6.3043-4.2932-.2868-2.8577-4.1427-2.19-6.74-2.3582-2.5626-.1661-3.0552-2.3054-3.16-4.3475-.1294-2.5151,1.9412-2.27,3.5272-2.3982,2.47-.1989,4.9571-.2018,7.4242-.4276a2.3023,2.3023,0,0,0,2.2342-1.7027c.2166-1.1784-.8527-1.7163-1.6945-2.1718a17.1035,17.1035,0,0,0-7.1986-1.6532c-2.0509-.1405-4.8535-.3779-4.4974-3.4105.3433-2.9251,2.9041-2.5909,5.0964-2.3824,1.8074.1719,3.6158.3371,5.4263.47,1.2919.095,3.1255.5991,3.4646-.9753.4238-1.9677-1.7364-2.0324-3.0135-2.5725-3.6386-1.5387-7.4248-2.7523-10.7371-4.9917a8.6929,8.6929,0,0,1,.8682-5.9566c5.2132.3777,10.2973,2.8093,16.3764,1.2929-3.6862-3.204-7.994-4.1159-10.8089-7.2481-1.2563-1.3981-3.6926-2.1338-2.4219-4.7513a4.5734,4.5734,0,0,1,5.3311-2.708,37.704,37.704,0,0,1,5.296,1.2464c1.49.4963,3.2635,2.2213,4.2641.1183.88-1.85-1.6257-2.4972-2.6485-3.68-1.1162-1.29-4.0878-.8666-3.6832-3.3373.397-2.4238,2.6778-3.1119,4.827-3.6971,1.9106-.52,3.7438-1.4,5.6783-1.74,2.979-.524,5.1819,1.0021,6.536,3.5161,2.2174,4.1167.7783,12.7-2.3886,16.3736-2.4959,2.8952-4.8484,5.8766-8.6106,7.2647-1.3587.5013-2.3219,1.4849-1.8813,3.0579.5452,1.9457,1.9961,1.2721,3.2468.88,1.89-.5926,3.7929-1.1659,5.6334-1.8914,1.2946-.51,3.2273-1.5061,3.7948-.5311,1.0559,1.8141-.4144,2.9605-2.0972,4.21a34.0386,34.0386,0,0,1-6.9514,3.7065c-2.05.8952-4.3412,2.1082-3.6191,4.638.8111,2.8423,3.2537,1.23,5.07.9134,1.1435-.1993,2.3214-.6969,3.2051.4629a2.7631,2.7631,0,0,1-.4292,3.6653c-2.2322,2.4151-4.2514,5.1162-7.3548,6.5851-.9245.4377-1.8486,1.0233-1.2347,2.2638.6053,1.2229,1.6323.8432,2.5647.44,3.64-1.5729,7.2718-3.1672,10.8147-4.7136,2.7174,6.1659,7.5313,10.0777,12.5455,13.8078a2.0082,2.0082,0,0,1-1.1683,2.1643c-4.6722-2.1-9.7215-2.8734-14.6364-4.0873-4.2485-1.0492-6.9235.8373-8.34,4.95-1.1813,3.4305-.61,6.9193-.6311,10.3649-.0256,4.1034-1.3313,5.34-5.4728,4.0471-7.9869-2.4943-14.4768,1.4277-20.5728,5.81-1.9828,1.4253-1.7318,3.8938.0546,5.7012,1.568,1.5864,3.6252,2.3673,5.0252.0509,4.4553-7.3717,11.0583-7.8152,18.571-6.5,4.4861.7854,7.6524-1.9977,8.1412-6.5266a52.5375,52.5375,0,0,0,.3173-5.93c-.0281-4.858,1.2548-6.1423,6.19-5.9834,4.78.1538,8.6842,3.0732,13.1636,4.1774,2.0556,12.04,16.0189,17.6878,23.8933,13.1207,4.6172-2.678,7.7987-2.9134,11.9838-.688a8.1973,8.1973,0,0,0,2.9144.6394c2.6132.2851,3.53,1.5423,3.5879,4.2926q.3564,16.92,1.233,33.8271c.1244,2.375.3366,4.7825.5274,7.1828v15.8621a125.8848,125.8848,0,0,0,0,19.4605v1.8726a3.445,3.445,0,0,1-1.67,2.58c-2.486-2.79-2.9668-6.0466-3.2354-9.3537-.3236-3.9814-.48-7.9785-.89-11.95-.22-2.1344-1.47-4.1241-3.6989-3.963-2.4456.1768-2.1779,2.639-2.0234,4.3838.6421,7.2526,1.4649,14.4943,4.1379,21.348.8741,2.2411,1.4941,5.139,5.1709,3.256a1.278,1.278,0,0,1,1.8514,1.4972c-1.3482,5.41.9054,10.8706-.2348,16.2615-2.4889.1655-2.92-1.9934-4.1164-3.2526-2.1707-2.2843-1.4508-5.7859-3.2367-8.0537a32.1026,32.1026,0,0,1-6.4379-17.8638c-.668-9.1876-1.4822-18.3375-2.8136-27.4407-.6325-4.3243-4.7052-7.6234-9.3433-7.8232-4.4975-.1937-6.8167,2.2969-8.2913,6.3654-1.7444,4.8127-2.4864,9.5715-1.2818,14.5862.21.8759.8142,1.9368-.9345,2.7465a19.1254,19.1254,0,0,0-8.1285-6.6771,5.9174,5.9174,0,0,1-3.3241-4.7573,35.9953,35.9953,0,0,1-.0746-10.4255c.75-4.2369,1.3377-8.5147,1.723-12.7993.2133-2.3716-.3118-5.0624-3.1535-5.389-3.0787-.3538-2.5932,2.4425-3.215,4.4889-2.0727,6.8228-.0907,13.8168-1.4136,20.7455-1.3955,7.3087-6.936,12.6922-14.4133,12.0658a32.1394,32.1394,0,0,0-3.981-.0281c-1.0738.0437-2.354-.4619-2.8891,1.1693-.5,1.5245,1.1173,1.3738,1.5133,2.159,1.4666,2.9081,5.8559,4.4236,4.204,8.818l-.0512.062c-3.9128,4.3055-3.5571,6.4967,1.4352,8.1531,5.567,1.8471,9.6116,6.0916,13.5025,9.8946,5.5708,5.4446,2.3534,15.1624-6.019,21.0947-4.3931,3.1128-16.1307.8459-18.6059-4.12-2.5214-5.0591-1.737-11.0863.3895-15.6472,2.4-5.1483,1.6711-9.3938.31-14.1237-.3191-1.1086-.9845-2.2666-.8609-3.3287.7115-6.1145-2.8122-10.2626-6.2884-14.5491-1.6982-2.0941-4.3463-3.4007-5.8827-1.8357-1.46,1.4873.13,3.9145,2.0419,5.7072,6.75,6.3278,10.1757,13.6062,7.5482,23.3952a124.4266,124.4266,0,0,0-3.0012,14.016c-1.2911,8.77,3.7081,14.2,12.1684,14.477a33.04,33.04,0,0,0,9.448-1.404c1.6818-.4236,3.0285-.7365,4.52.7116,3.1643,3.0713,1.99,6.8709-3.2429,8.8689-7.46,2.8482-14.6566,7.2492-23.2974,4.1914-1.1113-.3932-3.9027-1.0333-4.313,1.0472-.45,2.2821,1.7764,3.3285,3.7618,3.9251a6.5333,6.5333,0,0,0,2.441.1747c5.0614-.4807,10.2394-.4991,15.1467-1.6553a25.4462,25.4462,0,0,0,16.4248-12.46c4.3961-7.481,3.9015-15.8576,4.635-24.02.2343-2.6079-.469-6.3895,2.0456-7.293,5.6956-2.0467,7.53-6.4834,9.0542-11.4361.3913-1.2714.4554-3.06,2.0761-2.861,1.3632.1676,1.2877,2.0875,1.5741,3.2348,1.4331,5.74,2.3832,11.6618,5.96,16.595,10.5942,14.61,15.2049,30.4983,10.58,48.4133-.4381,1.6971-.0352,3.1344,1.6076,3.6563,1.7189.5459,2.9106-.5481,3.3248-2.1887,2.335-9.25,3.3053-18.6717,0-27.7567-3.7666-10.3521-8.34-20.4125-12.6237-30.574-4.403-10.4439-8.2016-20.9851-7.5308-32.6294.1732-3.006,1.1034-5.5,3.8965-6.2354,2.9921-.7873,4.1993,1.9784,5.3661,4.1615,2.1846,4.0877,2.5382,8.6577,2.4537,13.0739-.3023,15.792,4.8961,29.83,12.9188,43.07.6958,1.1483,1.5221,2.8035,2.7762,2.6247,5.4785-.7814,4.0167,2.9861,4.1124,5.8245.101,2.9919.333,5.9806.3828,8.9728.0115.69.0082,1.3809.0149,2.0713v7.5133c-.1152,12.5628-.6616,25.1242-.0933,37.6981.3607,7.9807-3.6721,13.6288-10.3529,15.2443H397.2137a6.3547,6.3547,0,0,1-1.1865-.7612c3.9854-.0807,7.4206-1.9739,11.0979-2.8145,8.2384-1.8833,13.2044-10.7956,11.2351-19.1884-.9635-4.1066-2.7269-7.753-6.5144-9.2731-3.8965-1.5641-8.135-3.1226-12.4731-2.5763-13.1685,1.6585-26.4486,2.89-39.402,5.6275-8.0647,1.7044-15.0853-.445-22.3753-2.353a6.2962,6.2962,0,0,1-4.753-5.2974c-.2468-2.9,2.0612-4.1367,4.5573-5.15,1.68-.682,3.3207-1.4126,5.0554-2.003,8.4488-2.8753,17.3645-.999,26.03-2.9467,9.2885-2.0879,20.0233-10.2522,19.4448-18.61-.4932-7.1259-.5585-14.6279-4.006-21.3329-1.0117-1.9676-2.1534-4.4938-4.6475-3.45-2.622,1.0978-2.078,4.3226-1.1074,6.1026a33.274,33.274,0,0,1,2.9011,7.3652c4.1666,15.6016-3.336,23.9683-18.1579,26.0838a44.4191,44.4191,0,0,0-7.2591,1.2283c-6.1789,1.9351-12.79.9058-19.1545,3.1565-3.6673,1.297-6.8,2.6891-8.5627,5.6932-1.9065,3.2494-.6076,6.7125,1.6853,9.7127,3.37,4.4094,8.77,5.7352,13.0142,8.8025a2.9936,2.9936,0,0,0,3.6924.06c2.076-1.4789,4.4259-1.353,6.7237-1.3627,10.026-.0423,19.7312-1.9193,29.4112-4.4181,6.3214-1.6318,12.7505-2.9881,19.4863-1.637,5.8017,1.1637,10.1042,5.6931,10.6849,12.3464.2469,2.8283-5.85,9.275-9.8789,9.25-6.052-.038-12.1659.9538-18.205-.7677-9.5635-2.7262-19.1551-5.3381-28.8268-7.7014-9.7771-2.3891-18.3183-.08-26.5709,4.751a18.629,18.629,0,0,0-3.7648,3.2386,2.0855,2.0855,0,0,0-.1483,3.1218c.843.8563,1.8574.5608,2.7205-.0486,2.7163-1.9173,5.4464-3.82,8.091-5.8328,2.373-1.8064,5.5671-4.205,7.77-3.409,4.7926,1.7317,9.7534,1.9386,14.5751,3.0546,10.2959,2.3829,19.7689,7.7578,30.5782,8.312a3.9183,3.9183,0,0,1,3.1926,2.7176c-.26.1127-.522.2112-.7835.31H307.0319a21.4438,21.4438,0,0,0-4.89,0H117.3186a77.5455,77.5455,0,0,0-12.1932-.3792c-1.8126.1575-3.6245.2795-5.4359.3792H74.5471c-6.2126-.2564-12.4223-.6363-18.6322-.9952-3.7951-.2194-6.9748-2.0826-7.7213-6.4262-.6151-3.5792-1.2036-7.1642-1.9059-10.7266-.2969-1.5059-.6609-2.9235.8236-4.1376.4886,1.4407.9227,2.8185,1.42,4.173,5.1149,13.9213,14.4935,18.5838,28.55,14.2852,1.82-.5568,3.5081-1.0789,4.1752-3.0934h0c2.286-1.953,4.8224-2.5279,7.1073-.3309,8.378,8.0555,21.9283,6.4345,30.6709.459a3.63,3.63,0,0,0,1.9507-3.506c1.3286-1.0244,2.7648-1.9648,3.0025-3.8416.5349.0564.9882-.01,1.0346-.688l.0446-.0122a10.8157,10.8157,0,0,0,1.7487-2.3393c4.0732-10.5166,3.6622-21.5359,2.1012-32.2715a27.9584,27.9584,0,0,0-3.5349-10.1184c-1.3429-2.1876-2.8784-4.3138-4.1363-6.5816-1.24-2.2348-1.3439-3.7572.9476-5.8621,5.064-4.6514,7.6308-10.1528,5.9018-17.6779-.8852-3.8523-2.52-7.3771-3.3587-11.197-2.5274-11.5144-2.7481-23.26-3.8537-34.9175-.2123-2.2373.37-3.9867,2.4719-4.9037,2.34-1.0212,3.9135-2.8532,5.7149-4.5563,6.3995-6.05,6.0058-17.2649-1.3136-21.8863-2.6922-1.7-2.7565-3.252-2.5185-6.072.28-3.3214,2.849-5.9659,2.4063-9.7088-2.0447.681-3.529,1.1579-4.2845,3.4135-.5918,1.7669-2.2577,3.2011-3.5411,4.7021-1.4592,1.7068-2.765,2.0943-4.1283-.3159-1.7779-3.1432-3.8071-6.148-5.81-9.1577-.5216-.7836-1.2354-1.7425-2.4184-1.2376a1.8015,1.8015,0,0,0-.7678,2.5647c1.0167,2.0432,1.1833,4.3037,2.676,6.3128,4.2674,5.7435,3.2687,11.1636-2.0236,13.9205-1.2063-12.4638-3.8185-16.2793-14.3427-20.95-8.617-3.8243-16.8711-.6084-20.3993,8.0562a26.3544,26.3544,0,0,0-1.9027,11.9414c.0595.83.1088,1.7244-.9415,2.0324-.6538.1918-1.698.1067-1.591-.5646.7748-4.86-3.6469-8.767-2.1018-13.9725.984-3.3152,2.6245-7.0849.4326-11.4522-2.1387,3.6771-3.8342,6.8331-5.7626,9.84-1.9023,2.9658-4.06,3.4106-5.92-.0836A17.1025,17.1025,0,0,0,50.55,241.186c-.9581,4.54,2.4667,8.5767-.2751,12.2031a11.666,11.666,0,0,0-2.3154,7.4464c.2256,6.8392-3.2626,14.9022,5.5,19.413a2.97,2.97,0,0,1,.9574,2.1676c.7184,11.0868,4.4847,22.0459,1.1259,33.3128-1.4373,4.8211-1.811,9.8177-4.777,14.3144-2.7555,4.1778-3.6083,9.0342-.7141,14.087,1.8652,3.2563,3.3383,6.7559,5.5383,9.84,1.0371,1.454,1.8538,3.4633.7806,4.6378-3.6163,3.9579-3.6484,9.6018-6.88,13.6489-.7517.9413-.6209,3.0944-2.3977,2.6182-1.7481-.4686-.7735-2.23-.7879-3.4488-.1308-11.0888-.4559-22.1814-.2731-33.2655.1068-6.4819-1.0916-13.0614-.2063-19.3614,1.5415-10.9691.265-21.8077.1737-32.7-.0265-3.1669.5127-6.4542-.999-9.36,0,0,.5261-54.9421.7613-54.2543.5093-8.618-.4375-17.2189-.0265-25.8794.2568-5.4107-.4565-10.87.7651-16.3227.4569-2.0393.0165-4.2874-.0677-6.4382-.1448-3.7-3.0146-9.2246,5.017-7.3541a1.4738,1.4738,0,0,0,.9592-.2154c5.8838-3.4224,12.9567-4.3063,18.4017-8.7106,1.6558-1.3393,4.4422-2.2847,2.8026-4.8445-1.4433-2.2534-3.9168-1.0065-5.7514.1329a69.3392,69.3392,0,0,1-16.0356,7.5539c-1.7657.5482-4.8433,1.4636-4.9559.57-.2326-1.8454-1.3858-3.8378-1.87-5.4964v-2.2258l.0021-.0053a14.1212,14.1212,0,0,0,1.459-7.0764c.058-11.2146-.1165-22.4306-.2212-33.646-.0273-2.9187.8933-5.7115.711-8.7038-.4718-7.7478-.747-15.52-.7036-23.2809.02-3.6219-.1081-7.2375-.11-10.812-.0028-5.2954,1.65-10.5918,2.5975-15.8877l1.3011-.2993c-.4482,4.2653,2.8075,6.1463,4.6948,8.921,2.445,3.595,4,6.9566,1.9354,11.9395-2.6846,6.4778-2.4613,13.59,4.6146,16.934,2.9044,1.3724,3.0573,3.6706,1.8642,6.0969-1.3281,2.701-3.17,5.0445-6.276,6.0209-2.0594.6474-4.1025,1.3653-6.1026,2.1756a2.3731,2.3731,0,0,0-1.4839,3.2321c.3374.9937,1.0785,2.0691,2.1488,1.6045,7.01-3.043,15.41-4.3212,18.1744-13.12,1.0023-3.19,2.3583-5.1792,6.1282-4.8817a4.8885,4.8885,0,0,0,4.287-2.0085c4.5786-5.8186,3.4059-22.1284-5.1543-24.8511-1.2689-.4037-3.055-.7869-3.4348-2.558-1.1064-5.1585-2.19-10.3228-3.1815-15.5042a2.0333,2.0333,0,0,1,1.8425-2.5072c.0688-.0123.139-.0241.2088-.0363h1.4471a1.2974,1.2974,0,0,1,.8248.9431c1.5243,5.0248,5.497,8.7277,7.604,13.1988,4.5637,9.6843,7.7042,20.0375,5.9511,31.1151H86.13c-1.5144,2.1788-4.6889,1.6977-6.2149,3.87-3.3088.5519-4.9365,2.5023-6.5943,5.5475-2.2469,4.1276-2.6386,9.65-7.9838,11.9569-1.8421.7949-5.5393,1.05-4.7789,3.9172.6343,2.391,3.91-.0966,5.7962.9723.2208.1252.34.43.5033.6512-.23,1.1964-1.4158,1.2551-2.1727,1.8193-.7592.5658-1.9827.9733-1.48,2.1656a2.0825,2.0825,0,0,0,2.5713,1.0279c5.1345-1.6384,9.9969.0812,14.9248,1.0562l1.8993.3716c10.2995,4.2426,14.4362,17.3328,9.51,27.6373-3.6887,7.716-9.2564,14.2126-12.7434,22.0622-6.6178,14.8974-4.4277,29.4847.765,43.9382,1.3465,3.7481,5.4977,4.6758,9.65,4.3746,3.3322-.2416,5.2332-1.8178,7.07-4.522,3.2493-4.7851.8234-9.9814,1.6445-14.9321.5893-3.5523.9462-4.8875,4.6795-3.25,2.2526.988,4.5236-.1907,3.9291-1.4855-1.7845-3.8866-2.4989-8.4861-6.5829-11.0116-1.2306-1.0631-.6926-2.6043-1.055-3.9033-1.0272-2.02-1.9751-4.0871-3.0953-6.0558-5.2535-9.2332-4.9078-14.59,1.6182-22.8479a12.6045,12.6045,0,0,0,1.198-2.6233c3.9293-8.0335.65-15.6865-1.5916-23.1466-1.2724-4.234-1.2085-7.2934,1.25-11.0418,5.5725-8.4949,2.448-19.7915-5.7951-22.5755q-.7712-2.7486-1.544-5.5021c-.3722-7.4188-1.48-14.845.1215-22.2565q.0064-.6292.0127-1.2577c3.8636-4.7167,6.2829-10.6834,12.1374-13.6963,1.0317-.531,1.1018-1.9416.2466-3.098a2.4133,2.4133,0,0,0-3.133-.7477c-2.8061,1.2558-5.69,2.2561-7.454,5.2849-1.2336,2.1186-4.3955,4.5945-6.0476,3.2565-2.908-2.3548-4.6109-6.1976-6.8848-9.514,5.9517-1.6733,39.418-2.1385,48.5866-.7762a5.2784,5.2784,0,0,0-.0975,5.2652c1.3017,2.5251.9694,5.1855.84,7.8247-.1036,2.1086-.938,4.1322-2.97,4.8009-2.5931.8534-2.7247-1.8463-3.5538-3.2641-2.8967-4.9532-6.2083-9.4708-11.6589-11.8745-2.1775-.96-3.8458-.2783-4.8578,1.9128A3.184,3.184,0,0,0,108.26,55.13c8.14,4.57,11.3795,11.9288,12.2392,20.8128.4225,4.3662-1.5868,6.6-5.5987,7.2912a21.6726,21.6726,0,0,1-8.4074-.5661c-1.3531-.3015-2.712-2.3488-3.923-.8111-.676.8584-.1071,2.8057.1187,4.2278.1511.9527.8058,1.8175,1.0214,2.77.4255,1.88-.1956,3.0279-2.3238,2.4078-1.0163-.2963-1.9646-1.6118-2.871.0508-.806,1.4781.623,2.0494,1.32,2.85,1.6223,1.8644,3.7831,3.4622,3.9788,6.1318.5984,8.1608,4.5742,13.4469,12.4051,16.2267,8.7839,3.1179,11.4406,17.5561,4.2775,23.5253a61.2081,61.2081,0,0,0-18.2979,26.2973c-1.3887,3.7161-.7046,7.2178.64,10.6434.4226,1.0769.9308,2.0353,1.2866,3.1869a18.2716,18.2716,0,0,0,7.732,10.4124c1.0346.6444,2.1855.9669,3.188-.0877,1.0415-1.0956.54-2.1606-.2537-3.1091-1.2788-1.5284-2.5725-3.0482-3.9312-4.5052-9.3941-10.0734-4.78-17.1657,1.9148-25.959,1.4635-1.9219,3.4554-1.6266,5.456-1.1426h0c3.4078,1.9819,3.473,6.09,5.6759,8.924,3.76,4.837,4.0126,21.1687.4611,25.8358-4.2638,5.6031-8.0365,11.9124-15.6482,13.8607a10.7194,10.7194,0,0,0-3.4579,1.9535c-1.0785.7964-2.0761,1.9044-1.5084,3.36.4948,1.2687,1.8482,1.1805,3.0233,1.2542a6.9753,6.9753,0,0,0,4.1347-1.4416c3.0942-1.8746,6.2725-3.6167,9.4723-5.3075,1.0891-.5756,2.3123-1.6112,3.5606-.1424,1.0115,1.19.747,2.4334.2692,3.745-1.5494,4.2536-4.6494,6.6973-8.9219,7.8782-3.9934,1.1037-8.0187,2.136-11.9162,3.52-1.4292.5075-4.1775.8533-3.2764,3.2647.6879,1.8408,2.1044,3.4774,5.06,2.21,4.7789-2.05,9.8878-3.302,14.4413-5.9618,1.6662-.9733,3.9024-2.5255,5.3911-.7438,1.5633,1.8711-.0819,3.86-1.3756,5.7446-4.0609,5.9158-10.8338,5.9019-16.6487,7.95-1.7333.61-4.03.6114-3.354,3.2179.6668,2.5721,3.1783,1.74,4.6488,1.3218,5.5324-1.5729,11.2069-2.9341,16.1257-6.0885,2.4832-1.5926,5.9747-3.4151,5.952-6.2644-.0593-7.425,1.6476-14.944-.5232-22.3-1.7005-5.7626-2.0972-11.4812.9045-16.8928a12.5442,12.5442,0,0,0,1.3309-7.1661c-.4984-9.2291-4.787-17.5072-6.6219-26.4024-.1382-.67-1.1006-1.1708-1.68-1.75q.0275-.5116.055-1.0231c.2072-1.92-.7769-4.3479,1.008-5.6388,6.1351-4.4374,6.4941-11.4243,5.2-17.11-1.5435-6.7828,1.5767-10.3711,4.8664-14.9725,4.6093-6.4471,2.6081-20.2577-3.3363-23.4514-3.1038-1.6676-5.1021-3.6171-6.0481-6.8535.4953-1.5922-.45-3.4756.9874-4.8779,7.5227-5.88,11.6124-13.4053,11.2809-23.1457-.0894-2.63-3.7176-5.5143-1.4189-7.2069.0418-.0308.0892-.0541.1326-.0825h14.9667c.2889.2373.4271.6386.27,1.3319-1.6258,7.1743,3.7155,11.4238,6.8126,16.6193V62.95c1.4888,1.4989.4166,3.695,1.4428,5.3228a16.5836,16.5836,0,0,0,2.9939,16.8135c5.27,6.2262,6.5289,13.4655,8.0688,20.9484.9546,4.6387-.9369,5.6811-4.7884,5.7155-4.2715.0381-8.0149-1.7449-11.5245-3.7931-1.6878-.985-3.2186-2.5209-4.6438-.6119-1.5526,2.08-.1105,3.8147,1.6134,5.5035,4.7528,4.6558,10.6665,5.4685,16.8453,5.6768q.2338-.261.4679-.5218h0q-.2332.2595-.4679.5217c4.2741,4.5238,3.9335,6.9732,1.2364,12.2484-2.7206,5.321-6.6231,5.7021-11.6388,5.4339-8.531-.456-15.92-10.041-14.296-18.4633,1.804-9.3554,3.6117-18.6752,7.5993-27.4056,2.3162-5.0714,1.3719-10.7949,3.02-15.895,3.54-10.9554-2.266-20.2915-11.3323-24.367-1.51-.6788-3.0449-1.052-4.0725.2931-1.0974,1.4365.73,2.3235,1.3708,3.2926a13.4117,13.4117,0,0,0,5.2319,5.1445c2.6422,1.2784,3.69,3.6388,3.1469,6.5993a.7845.7845,0,0,0-.32.6915c-2.823,1.3881-4.6346-.8691-6.6353-2.02-1.9068-1.0969-3.243-1.2322-4.5421.7411-1.41,2.1425.2517,2.9592,1.5891,3.8295,2.587,1.6832,5.5961,2.7571,7.5566,5.327.0829,1.5811,1.9657,3.14.0554,4.7436-1.8159.1573-3.0813-.7516-4.3051-1.9887-2.3515-2.3768-5.5678-2.7394-8.6358-3.3427a2.1234,2.1234,0,0,0-1.7207.5492c-.4633.5354-.1282,1.2375.4772,1.6686,3.6626,2.6075,6.3654,6.4428,10.6138,8.2985,1.1332,2.8436.2739,5.8248.6049,8.7212-3.7047,7.334-4.0929,15.57-5.938,23.3628-1.87,7.8988,1.9357,14.8676,7.618,20.56,2.4024,2.4067,4.898,4.693,2.7,8.5517-8.3407,14.6427-7.2056,30.2441-4.2469,45.8769,1.8275,9.6562,7.3838,18.0557,10.1645,27.4247,1.1831,3.9859,2.74,8.4093-1.8387,11.1688-3.0428,1.8337-6.7159,2.3362-9.2421-1.3429-2.6368-3.84-2.1546-7.1121,1.5847-9.9514,1.5933-1.21,3.2435-2.1026,1.5879-4.2493-1.59-2.0624-3.6837-1.0263-4.7792.2224-2.8127,3.2065-5.1374,7.1076-5.353,11.2909-.3542,6.87,6.15,11.4978,12.8748,9.8629,6.1977-1.5068,11.06-5.2753,10.639-9.0369-.6863-6.1364-1.4889-12.1868-4.3986-17.9888a73.1716,73.1716,0,0,1-7.8331-29.44c-.5379-11.2777,2.6316-21.9267,5.7529-32.572,1.9535-1.9929,3.9222-1.624,5.8985-.0352a42.5343,42.5343,0,0,1,2.3337,8.4845c1.2525,5.5993,2.1581,11.2233,5.1993,16.4664,4.0558,6.992,1.6707,13.8854-5.1984,18.6654a10.534,10.534,0,0,0-2.7349,2.08c-1.342,1.8936-4.4433,4.037-2.6126,6.1419,1.67,1.9206,4.7318.0954,6.7259-1.4084,2.2048-1.6627,4.07-3.7723,6.2487-5.4749,1.1256-.8794,3.2869-1.8924,2.9349.854-.2175,1.6983-.4434,4.1241-2.3726,5.2033-3.4188,1.9126-5.5633,5.25-8.6463,7.47-2.41,1.7355-3.05,4.0364-1.1693,5.7925,1.9895,1.8574,4.0867-.2268,5.2551-1.9052,1.9231-2.7626,4.5214-4.7766,6.8675-7.07.7594-.7423,1.3641-2.2248,2.778-1.5378,1.4511.7049,1.2806,2.1505,1.0632,3.5114-.9641,6.0328-3.4206,10.9521-9.42,13.561-2.258.9819-4.1975,2.9137-2.6871,5.506,1.635,2.806,3.76.5312,5.5783-.3013a24.62,24.62,0,0,0,1.9744-1.4862c9.4531-5.6124,8.0861-15.6757,10.0169-24.3717a2.7681,2.7681,0,0,0-.2988-1.7988c-4.3885-7.7337-7.282-16.0943-9.8924-24.5167-2.7616-8.91-6.7648-17.7564-3.6459-27.4863,2.3879-.0574,3.8272-1.4812,5.1673-3.2932,5.5229-7.467,6.8452-15.9883,6.486-24.9635l.031-.0248c2.969-1.4566,5.7076-2.8176,6.4333-6.7739a7.8645,7.8645,0,0,1,4.0938-5.2579c2.1267-1.1081,3.5925-3.3052,1.6763-5.1574-1.2921-1.2488-3.6342-.9363-5.6655.84a23.3591,23.3591,0,0,0-6.6333,10.127c-.3634.038-.7278.0771-1.0908.1167-4.2006-10.917-3.1042-19.1293,4.0491-24.9393,3.0545-2.4809,3.6481-5.2647,3.4119-8.6653-.1266-1.8223-.5586-3.6315.7737-5.24.7663-.9249,1.6122-1.8435,2.8568-1.72,1.7782.1759,1.1069,1.7782,1.2629,2.7877.3534,2.2854-.22,5.1053.923,6.809,4.7517,7.0812,5.8827,14.45,4.5265,22.8418-1.08,6.6823.6924,13.52,1.1528,20.2924.2467,3.629-.6073,7.3938-4.065,8.9948-6.6208,3.0656-11.3217,8.7746-17.7362,12.0675-3.7842,1.9427-4.5769,6.0438-4.4424,9.5432.2287,5.9549,2.0684,11.7334,4.3629,17.2876.6159,1.4909,1.0244,3.8217,3.1277,3.0394,1.8973-.7057,2.69-2.8861,2.1511-5.0324a17.9994,17.9994,0,0,0-1.66-4.1511c-1.5834-2.916-1.7334-5.9967-1.5376-9.208.1365-2.2391.8649-2.737,2.6832-1.3551,1.4843,1.1281,3.0754,2.409,3.1291,4.32.09,3.2194,2.1471,5.5111,3.2572,8.2409.7285,1.7917,1.8557,2.8761,3.8065,2.0823,1.9-.7731,1.2767-2.3888.94-3.8606-1.2281-5.3693-3.7537-10.2463-5.6625-15.3562-.3433-.9188-2.1554-2.5378-.2923-3.3759,1.5986-.7191,2.3971.6261,3.0538,2.2875,1.6865,4.2671,3.7306,8.3963,5.7181,12.5393.8581,1.7888,1.9764,4.2532,4.2332,3.3074,2.1957-.92.8179-3.0768.4472-5.0408-1.1128-5.8955-5.6868-10.5639-5.6-16.8483.0232-1.6653-.2116-2.9876,1.8582-3.3085,1.8233-.2827,3.0972.0271,3.87,2.077,4.4017,11.6712,6.1293,23.798,6.4745,36.1832a17.8141,17.8141,0,0,1-1.5282,7.74c-3.0583,7.0574-6.13,14.1235-8.7666,21.343-1.3288,3.6378-2.9065,7.8121-2.3086,11.4,1.39,8.3394,4.295,16.3708,12.6571,20.5879,1.829.9223,2.0835,1.4959,1.255,3.29-1.4009,3.0334-2.6957,4.9709-5.8393,1.5735-.9266-1.0014-2.2427-2.1662-3.9537-1.5769a1.888,1.888,0,0,0-1.1745,2.4592c1.2564,3.2339-.7569,5.3473-2.341,7.6179a11.0927,11.0927,0,0,0-1.7033,9.0324c.728,3.456,3.7116,5.3194,5.6226,7.94a9.0705,9.0705,0,0,1,7.2721-4.22,9.068,9.068,0,0,0-7.2716,4.2212c-.2592,1.6157-1.3949,1.5116-2.5816,1.3142-4.7734-2.63-9.5032-5.3532-14.3559-7.8363-1.54-.7879-3.04-1.2508-2.812-3.3614a5.5574,5.5574,0,0,0-2.6791.2739,5.5614,5.5614,0,0,1,2.68-.2745.5038.5038,0,0,0,.45-.4016c4.4225-.4373,6.3925-3.1735,7.71-7.2163,1.1978-3.6747.3078-6.703-1.0059-9.9895a11.3172,11.3172,0,0,0-17.092-5.2815c-4.4818,3.1012-9.0018,5.9807-14.9463,5.6967a11.5028,11.5028,0,0,0-7.992,2.8144c2.4582,1.22,4.3988,2.3994,6.8536,1.9608q.987.2249,1.9721.4485c.2018.9867.4772,2.0926-.7826,2.5105-1.8653.6189-3.5644,2.0011-3.0561,3.6745.4694,1.5456,2.9146,1.1005,4.5188,1.3258,3.1508.4426,6.6134-1.44,9.44,1.4869,2.3108,2.3931,3.6659,4.2364-.5329,6.319-4.091,2.0292-8.5744,2.4823-12.82,3.77-2.5349.7688-5.2046-.7085-5.1942-4.7693a26.5885,26.5885,0,0,0-7.2507-18.5533c-1.0769-1.1648-2.5078-2.89-4.2167-1.5845-2.0044,1.5313-.4855,3.2645.5783,4.7351a26.0722,26.0722,0,0,1,5.2541,18.4566,53.9464,53.9464,0,0,0,.0271,10.46c.3125,3.2317.7368,6.7934,3.8537,8.6939,4.0877,2.4922,8.2534,5.0162,12.9214,6.2547a111.0939,111.0939,0,0,0,18.7986,3.2818c7.5678.664,14.7814-1.3706,21.5289-4.1066,5.7448-2.3293,6.6131-8.653,7.77-14.2061,4.2922.87,4.034,5.26,6.0183,7.9062,2.1855,2.9151,4.6592,5.0849,8.34,3.5806,7.75-3.1673,12.8192-7.4429,8.0827-17.6261a12.89,12.89,0,0,1,.7729-13.2316,11.7566,11.7566,0,0,0,1.76-6.1375c.0562-1.2231-.17-2.3951-1.5012-2.8452a2.3862,2.3862,0,0,0-2.6568.92,19.541,19.541,0,0,0-2.4321,3.1056c-3.658,6.7133-4.9195,13.5754-1.62,20.9223,1.8613,4.1445-.0441,7.9646-3.3381,7.2058a7.751,7.751,0,0,1-5.7656-5.0162c-.758-2.28-1.1582-4.5208.9959-6.885,6.01-6.5957,5.7778-10.8466-.4563-17.4463-2.5049-2.6517-1.8778-6.0279-1.9709-8.9977-.0879-2.8091,3.1757-1.4962,4.8733-2.0663,4.6474-1.5608,9.9449-7.305,9.9281-11.2358-.0318-7.4656-3.5368-12.4806-10.1455-14.2393-1.5664-.4169-3.8582-2.0354-4.653.588-.5911,1.9511,1.7094,2.3772,3.1829,3.1276,3.02,1.538,6.328,2.7857,6.5726,7.0892.3077,5.4126-3.7738,9.9724-9.71,10.5062-4.5578.41-11.3584-4.9864-11.9934-9.7487-1.1929-8.9461.3874-17.4054,3.7021-25.8469,1.2962-3.3013,4.2453-4.6916,5.5938-7.8691,3.5063-8.2625,2.0547-16.4254,1.1242-24.7294a337.0254,337.0254,0,0,0-6.06-34.2241c-.7712-3.5372.2651-4.1093,3.497-3.4517,5.6461,1.1486,12.3138,6.7043,12.6454,11.9352.5491,8.663,3.0385,16.994,3.8072,25.5725.7141,7.9688,3.55,14.3652,10.85,18.351,1.3349.7289,2.2975,3.0451,4.0126.9986,1.548-1.8471-.2541-3.2834-1.3247-4.5786a7.7491,7.7491,0,0,0-2.7021-2.1094c-5.5244-2.4566-6.58-7.5915-6.2069-12.454.6128-7.9935-2.1705-15.5008-2.0581-23.47.1436-10.1962-8.5577-15.3782-15.257-21.3917-.3614-.3245-1.2649-.0453-1.9161-.0471h0l-1.7027-1.1029c-2.5655-6.5-7.4977-12.4065-4.8677-20.2081.3763-1.1165-.6779-2.7742,1.167-3.3315,1.9651-.5935,3.1973.555,4.0057,2.1317a22.7276,22.7276,0,0,1,2.278,12.0647c-.3068,4.5956,2.1176,7.15,5.9718,8.73,6.0245,2.4694,12.6779-.2284,12.9935-5.3771a35.8283,35.8283,0,0,0-.4511-9.9165c-1.403-6.2464-.7153-11.4234,5.2455-14.9537,1.6043-.95,1.5586-2.4179.92-3.9321a3.0573,3.0573,0,0,0-3.6546-1.8938c-4.27.6926-10.0384,8.9429-9.5862,13.3723.4213,4.1262,1.9728,8.106,1.5382,12.3387-.1821,1.7729-.7563,3.307-2.6221,3.7987-1.7682.4658-2.7677-.8716-3.6714-2.0529-1.6114-2.1069-1.6993-4.6127-1.6776-7.1382.0373-4.3313-.2689-8.7246-2.2547-12.5658-1.5739-3.0447-.3707-5.13,1.4454-6.9264,6.0614-5.9948,6.5268-10.3647,1.4954-17.179-1.1815-1.6-2.2591-3.277-3.3844-4.9186-.5615-2.7313-1.1371-5.46-1.68-8.1948-.4831-2.4335-1.6683-4.8235-4.2362-4.5787-2.0185.1924-2.4243,2.6982-2.399,4.7328-2.4865-1.3916-3.5258-4.0144-5.5274-5.824A3.4773,3.4773,0,0,1,197.54,45H233.668a3.7294,3.7294,0,0,1,.6153,1.1614c2.0059,5.8812,6.7079,7.9408,11.82,9.7636v0l.0593.0387c1.5495,3.4011,5.7207,2.9826,7.9206,5.4357q-.38.9954-.76,1.99c-.9256.3444-1.88.6281-2.7721,1.0434a78.0633,78.0633,0,0,0-14.4285,9.0531c-1.509,1.1561-2.114,3.094-.4,4.771,1.4869,1.4545,2.6857.5676,4.3239-.2537,2.1676-1.0867,4.0516-2.6068,6.2579-3.68,6.69-3.255,12.8468-7.5752,19.6471-10.6964,5.1251,1.2552,9.7242,3.2217,11.7433,8.68.5715,4.6931,2.6,9.13,2.4586,13.95l.001,0c-1.3068,1.4074-.1126,3.2171-.7578,4.7317-1.5524-.1854-1.7949,1.1049-2.3418,2.0657q-2.6851,4.7172-5.386,9.4248a5.3844,5.3844,0,0,1-3.1162,2.9709,21.1083,21.1083,0,0,0-4.4267.3966c-6.7862,2.0711-12.6838.6992-17.98-3.997-2.0888-1.8522-4.507-3.3319-6.7683-4.9907-1.7459-1.2806-3.5636-1.1694-4.904.3613-1.4928,1.705-.5377,3.2608.8167,4.7768,3.8269,4.2831,8.8878,6.9475,13.6679,9.757,2.6757,1.5727,6.4973,2.8373,9.9633.6585q.83-.5721,1.6608-1.1442c3.659,1.8379,7.6346,3.3579,9.1932,7.65,2.93,8.0672,6.4538,15.9493,5.9792,24.9087-.23,4.3322-3.2119,8.8336-7.4,9.6563-4.8036.9438-10.03-1.5644-11.598-5.531-3.5227-8.91-8.3671-16.1967-18.6682-18.7032-3.8316-.9323-3.5739.73-3.6755,2.9274A3.8421,3.8421,0,0,0,237.73,136.06c7.11,1.1418,9.3208,6.3247,11.7727,12.1413,2.0479,4.858,5.0354,9.7717,11.2727,10.7081,2.1667.3253,4.8374.5567,5.1611,3.0768.3667,2.8554-2.519,4.0087-4.584,4.4589-5.1928,1.1321-8.6818,4.66-12.437,7.8472-5.1645,4.3838-7.4111,12.01-5.45,17.8945,1.9318,5.7969,8.3364,10.166,15.231,10.39,7.1014.231,9.4632,2.2907,9.9664,8.7746.363,4.6779-1.27,8.6462-3.8957,12.508-4.52,6.6489-8.88,8.0609-15.3064,3.31-6.1335-4.5338-11.5809-9.98-13.93-17.6279-.8333-2.7132-2.84-3.89-5.1176-3.21-2.8677.8566-1.426,3.1616-.6572,4.955a13.0866,13.0866,0,0,0,1.7636,3.5147c5.3792,6.51,10.68,12.9976,17.6353,18.0534,6.1958,4.5037,15.4,2.95,18.1983-3.8922,1.36-3.3233,2.689-3.8317,5.1747-1.172,4.3273,4.63,9.5347,8.1282,16.0066,7.5283,12.9519-1.2006,23.2062-7.54,30.9441-17.9854.5929-.8.7476-1.4281.0042-2.138-1.0833-1.0344-2.1469-.6439-3.1309.13-4.3835,3.4463-8.8456,6.8015-13.095,10.4068-4.8627,4.1257-9.654,6.8374-16.62,4.82-7.1289-2.0647-11.3927-5.2913-12.8219-12.1408-1.3773-6.6,2.3662-18.8341,6.8478-21.459,6.8961-4.039,14.2446-5.2263,21.9562-2.5363,4.0991,1.43,5.0857,4.7783,3.011,8.7026-2.4626,4.6579-6.4711,7.9321-9.9243,11.7032-1.1413,1.2463-1.828,2.86-.8931,3.9953,1.2059,1.465,2.67.1122,3.8854-.7324,4.1483-2.8831,7.19-6.9109,10.6067-10.5195,2.4212-2.5572,5.6246-5.6415,3.4761-9.5385-2.5076-4.5484-5.385-9.0736-11.7177-9.4-5.1763-.2669-10.2613-.3117-15.2749,1.1206-3.9255,1.1214-5.326-1.0365-4.0976-4.1429,3.3048-8.3578-.4408-14.0053-6.3161-19.207-4.2639-3.7749-4.1831-5.6666.2127-9.5894,4.8569-4.3343,6.3812-9.9722,6.457-16.1746.1159-9.4837-4.0521-17.89-7.0174-26.5575-.8943-2.614-1.0221-4.2356,1.1019-6.0626a30.9508,30.9508,0,0,0,8.8185-13.0975c.9753-2.6981,1.9757-4.1407,4.8021-3.5406,2.9.6157,6.3811,1.1926,6.6667,4.8177.7067,8.9672-1.1416,17.34-8.79,23.0243-6.3941,4.7524-5.7281,13.21-1.404,17.9073,5.876,6.3835,5.8034,6.45.6554,13.1167-2.84,3.6775-2.9162,14.2235.0547,17.8346,7.0863,8.6134,16.877,10.8455,26.6729,3.7823,3.614-2.606,5.3053-5.9247,5.0184-10.1545-.3386-4.99-1.0038-9.921-5.33-13.462-2.0771-1.7-3.6259-3.8884-2.9391-6.8934l.0008-.0016.145-.1279c3.75-1.0452,7.0883-5.923,6.9338-10.0575-.3129-8.3722-5.8648-13.1065-12.2506-16.9442-2.7638-1.661-3.6909-3.4911-3.2712-6.44a37.737,37.737,0,0,0,.3333-4.4569c.0658-2.9077.0894-6.3813,3.716-6.5553,3.2854-.1576,5.1172,2.45,5.5277,5.9065.9685,8.1533,4.1886,15.1739,10.6139,20.5711,1.3681,1.1491,2.5028,2.2994,4.3016,1.0155,1.79-1.278,1.4371-2.8291.3775-4.3493a51.1144,51.1144,0,0,0-4.1376-5.6107,16.0339,16.0339,0,0,1-3.9755-9.819c-.7062-7.7311-5.239-13.8451-12.7159-16.1294a98.1381,98.1381,0,0,0-12.6076-2.9217c-6.9032-1.1435-8.11-2.0889-9.4556-8.7961-.2277-1.135-.2217-2.32-.484-3.4443-1.7782-7.6265.197-9.7365,7.9049-8.6017a17.4411,17.4411,0,0,1,5.0453,2.0408c.1737,1.3183.4447,2.6322.5049,3.9557.365,8.0319,3.3653,11.12,11.2106,12.5679a17.8867,17.8867,0,0,1,11.0347,7.1241c.9124,1.2051,1.0664,3.6469,3.3023,2.8888,2.4135-.8183.7914-2.7454.6493-4.2523-.2073-2.1985-.1312-4.692,1.5979-6.0012,1.9733-1.494,4.0786-.0939,5.8534,1.2853a3.9492,3.9492,0,0,0,1.3483.6327c1.0691.2971,2.0677,1.7271,3.144.8825,1.417-1.1118.0258-2.3749-.3277-3.5766-1.1-3.7375-4.5947-6.3435-4.192-10.9259.6836-7.78-7.1893-18.3281-14.594-20.2462a6.1187,6.1187,0,0,0-5.6581.8837c-4.8359,3.701-10.4519,5.4087-16.4342,6.4415-4.015.6931-7.94.1232-11.8831.1262-8.77.0066-17.6307-.013-25.6-4.64L238.6586,45h38.9253a15.02,15.02,0,0,0,3.87.01c.0343-.0028.0684-.0067.1027-.01h86.7189c3.28.1172,6.5651.1406,9.8323,0h36.8641c.7031,0,1.4062.0075,2.1093,0,1.15-.0124,1.33-.0348,1.7182,0a6.5922,6.5922,0,0,1,2.4262.7244,3.6758,3.6758,0,0,1,1.13,2.2194c.0233.2757-.0041.4513-.0423,1.7424l-.0291,1.2C422.2842,50.893,420.4926,124.736,420.4838,125.0986Zm-41.52-1.5565q.3757.9151.7512,1.8306a11.3848,11.3848,0,0,0,3.69,1.0806,11.3825,11.3825,0,0,1-3.69-1.0805c-1.0826,2.1621-3.4333.9175-4.9716,1.8506-1.56-1.1814-4.18-1.8875-2.1033-4.6973a11.1727,11.1727,0,0,0,2.251-2.9048,11.171,11.171,0,0,1-2.2507,2.9048Zm2.7315,187.3017c-.0565,6.2456-4.9636,12.419-9.9066,12.4633-4.6138.0412-11.9909-8.3709-12.258-13.9777-.229-4.81,5.3554-10.7975,9.954-10.6722C376.8905,298.8589,381.76,303.7191,381.6957,310.8438ZM67.6706,312.0159c.0488,9.8808,4.2326,14.6894,14.0237,16.4166,3.4.6,4.3289,2.5952,3.1749,5.8059-1.8576,5.1683-7.0072,6.335-10.9605,8.7985-1.8443,1.1493-2.9827-1.16-2.8008-2.8949.7568-7.2148-1.1932-12.95-7.8326-16.7688a5.2047,5.2047,0,0,1-2.4183-5.1048c.6821-10.5,2.1851-21.037-.59-31.482-1.1339-4.2678.04-7.5338,4.2553-9.3936,2.6021-1.1479,3.8463-3.5634,5.9644-6.5878.7049,10.3372.7362,19.6574-2.1343,28.8221C67.0978,303.6331,67.65,307.8762,67.6706,312.0159Zm26.5812-55.6992a10.61,10.61,0,0,1-2.2114-1.9531c-1.7721-2.5787-1.3367-5.23,1.03-6.945,2.4722-1.7918,3.5646.5158,4.9768,2.292,4.2669,5.3669,3.6027,11.8329,4.5625,17.7332-.5987,4.6887-1.1217,9.0851-3.2458,13.1906-1.4,2.7053-3.8906,2.8944-6.2383,3.4268-1.46.3311-1.8691-.94-2.0983-2.1838-.4883-2.6486.7088-4.1679,2.8373-5.7235C100.1874,271.5331,100.27,261.1824,94.2518,256.3167Zm.1945,9.2468c.0052,3.0431-1.0963,6.4706-5.6795,6.1277-3.6121-.0088-4.7729-3.1714-4.7979-5.6048a5.7977,5.7977,0,0,1,5.1427-5.8229A5.2576,5.2576,0,0,1,94.4463,265.5635Zm-7.9436-13.8374c-.3391,2.28-1.0011,4.6121-3.0255,6.0952-5.6776,4.1594-4.1494,10.1965-1.2863,16.0593.55,1.1265,1.3551,2.09,1.41,3.4175.052,1.2632,2.8422,2.1268.6622,3.66a10.2105,10.2105,0,0,1-6.0206,1.948c-1.7366-.0243-1.4273-1.5214-1.4359-2.6183-.0326-4.1364-.0131-8.2733-.0131-13.939-.1472-1.9513-.4453-5.4225-.6608-8.8989a11.8,11.8,0,0,1,2.975-9.1114c1.5023-1.6567,3.3234-2.5651,5.2831-1.742C86.4581,247.4653,86.7972,249.7471,86.5027,251.7261ZM76.1675,292.7126c.6961-2.4749,1.4419-5.3659,4.458-5.0054,2.6359.315,4.0663,3.4027,4.1974,5.594.1888,3.1553-.2321,6.85-3.5382,8.7322-2.0941,1.1925-2.9608,3.0606-3.8866,4.9772-.7788,1.612-1.9722,3.7444.3233,4.7161,1.7118.7246,3.437-.7536,4.5257-2.3146,1.73-2.4806,1.2788-7.27,4.922-7.3264,2.7561-.0425,3.6289,4.3176,5.8,6.3032,1.2887,1.1788,2.6174,3.3453,4.5516,1.8565,2.0951-1.6126.2041-3.47-.9448-4.6032-3.6159-3.5657-4.4823-8.5747-7.0615-12.6576-1.4821-2.3461.8527-3.227,1.8448-4.4436a2.927,2.927,0,0,1,4.457-.1495c2.128,2.5989,5.5782,4.4227,5.896,8.2154.4084,4.8724,1.7563,9.54,1.2837,14.6516-.7091,7.67-5.5719,11.121-11.38,14.302-1.1794.6459-1.84-.1939-2.81-.4162-7.6827,2.5337-11.7739-3.0919-15.0249-8.0156-3.584-5.4281-3.6658-11.8594.0575-17.8986A25.5161,25.5161,0,0,0,76.1675,292.7126Zm28.9563.4943c-2.8418-6.2134.4067-12.7477-.2-19.1377a1.2656,1.2656,0,0,1,1.1429-1.3958c1.6784-.2092,1.6493,1.4323,2.1784,2.2861,6.4545,10.4169,10.3927,21.49,8.5481,32.7589.2176,3.3859.2045,5.5576.5336,7.6762.3733,2.4025-.3,4.5456-2.1582,5.7364-5.0183,3.216-7.4428,8.41-10.573,13.0691a11.2143,11.2143,0,0,0-1.8217,4.0615c-.9211,5.0683-2.1575,5.7181-6.6854,2.8939-2.6945-1.6808-4.6647-4.1788-6.7647-6.5375-1.0013-1.1247-.6892-1.493.2564-2.1944,2.0754-1.5394,4.009-3.179,6.2548-4.5856,6.4576-4.045,12.4033-9.1493,12.535-17.711A38.5663,38.5663,0,0,0,105.1238,293.2069ZM119.7419,279.11c-5.06.0858-7.6946-3.287-7.7287-9.8953-.018-3.4993,3.7154-7.6792,6.9364-7.7661a9.64,9.64,0,0,1,9.577,9.4147C128.4865,275.2944,124.5086,279.0287,119.7419,279.11Zm1.6278,51.1978c.6445,2.2249,1.4771,4.3906,1.2393,6.3628-.0466,6.1011-2.7806,9.3534-7.762,10.9455-2.696.8616-3.8281-.5575-4.83-2.1177-3.4651-5.3973.3884-15.434,6.619-17.2846C118.5656,327.64,120.593,327.6256,121.37,330.3074ZM59.412,274.4418c-3.8626.12-7.4383-5.6212-7.7153-11.59-.3829-3.6136-.1615-5.85,3.4849-6.0062,5.7693-.2464,10.0523,2.4835,10.3084,6.79C65.6943,267.0737,61.5876,274.3745,59.412,274.4418ZM63.3,329.9268c3.0533,4.1573,3.1235,8.99,2.5823,13.68-.2758,2.39-1.4807,5.8345-4.6161,5.5982a7.682,7.682,0,0,1-6.3179-4.8945c-.5982-1.593-1.4824-3.3676-1.0433-4.9583a22.0017,22.0017,0,0,1,2.593-9.2906C58.269,326.9089,61.1279,326.9688,63.3,329.9268Zm-.3023,26.9266c3.2615-3.708,7.8616-5.318,11.693-8.109,8.1512-5.9375,15.7933-5.4417,24.76-.5019,8.9378,4.9235,17.2653,9.4476,20.4078,19.9523.9637,3.2213.5048,6.0094-1.9127,8.1112a24.1532,24.1532,0,0,1-11.36,5.6953l-2.9085-1.8386c-1.9349-5.4852-4.4569-10.5845-8.9007-14.568-1.4864-1.3324-3.1053-2.5534-4.6837-.9977-1.3124,1.2935-.3249,3.1515.7082,4.4928,1.71,2.22,3.77,4.2033,5.244,6.56,1.4112,2.2562,2.5439,5.3667-.5656,6.8549-2.71,1.2972-4.5439-.4624-5.9087-3.4319-5.5143-11.9987-18.6991-13.588-25.0361-3.9182-2.5743,3.9284-5.2785.3662-7.92.3074q-.3195-.6162-.6389-1.2326C57.1848,367.9825,58.5891,361.8662,62.998,356.8534Zm55.2841,53.7288c-7.2228,6.7821-15.31,8.0562-24.2257,3.7276a9.0417,9.0417,0,0,1-3.2092-2.198c-3.364-4.2931-7.2955-4.449-11.7331-1.9805v0c-2.5377.3979-3.2072,3.2134-5.3365,4.1474-5.3443.7951-10.619,2.4992-15.6726-1.5826a14.5644,14.5644,0,0,1-5.1574-8.1236c-.586-2.3933-1.52-5.9829,1.8227-6.89,3.4652-.94,6.4607-5.2128,11.1081-.797,8.37,7.9524,20.3667,4.7707,25.0252-6.0536.77-1.7879,1.6915-2.6732,3.6807-2.4789,2.0528.2006,2.5781,1.44,3.0605,3.2449.8977,3.3581-.602,5.807-2.4955,8.1792-1.0319,1.2926-2.3189,2.3811-3.3576,3.669a2.7709,2.7709,0,0,0-.2554,3.6556c1.1126,1.4876,2.5123,1.2973,4.0123.6773,3.8857-1.6062,5.4007-5.3447,7.1326-8.6007,1.4151-2.6606,2.1594-3.1576,5.1242-1.8514,3.5222,1.5519,5.9312,4.1053,8.5819,6.551l5.2305-5.3287a19.3229,19.3229,0,0,1-9.2758-4.3071c-3.9025-3.0922-3.1258-7.0886,1.4867-9.023,9.2831-3.8932,11.0637-2.57,9.9557,7.3662-.2005,1.7982-.3111,3.6064-.4631,5.41q-.85.2767-1.7018.5537-2.6178,2.6649-5.2322,5.329C117.1076,406.0883,119.1921,407.9132,118.2821,410.5822ZM66.8687,384.9741c-.0281-5.2328,4.7276-9.6526,10.4127-9.6776,5.8255-.0256,8.5353,3.2723,8.4355,10.2664-.0874,6.1286-3.0488,9.0141-9.3335,9.0944C70.4578,394.7332,66.9016,391.114,66.8687,384.9741Zm-9.22-2.686c1.1,2.1605,5.3681,3.5424,1.892,6.8238-1.4363,1.3559-3.1306,3.6162-5.4277,1.2212-1.8206-1.8983-3.013-4.0752-.6148-6.4937a17.1934,17.1934,0,0,0,1.21-1.5191ZM60.5908,45a19.6592,19.6592,0,0,1,3.0281.7271c3.69,1.1967,3.8191,4.7955,3.2988,7.9494-.479,2.903-1.6728,5.6881-2.5517,8.5251q-.7668-.0009-1.5341-.0013c-3.4326-3.7985-6.8278-7.6318-10.3107-11.3836-2.4474-2.6366-2.7545-4.1111,1.4212-5.3839A14.54,14.54,0,0,1,55.8551,45Zm1.5071,26.3511a10.8893,10.8893,0,0,0,1.9952,1.35.49.49,0,0,0,.5-.3756,3.8953,3.8953,0,0,1,.607-2.6684,3.8927,3.8927,0,0,0-.6063,2.6679c2.0548-.5731,4.207-1.8447,6.1473-1.5775,4.1341.5694,6.0007,3.9023,6.5573,7.7064.5452,3.7262-3.3349,8.4657-7.0207,9.0982C67.4343,88.04,62.5,84.69,62.009,81.7955c-.557-3.2848-.6262-6.5263,2.0841-9.094A10.8893,10.8893,0,0,1,62.0979,71.3511Zm22.2213,46.1512c-7.9248-3.7173-11.4529-9.6222-3.5257-17.7044-.1494-1.1864-.7649-2.3-1.012-3.4715.2472,1.1713.8627,2.285,1.0121,3.4711,3.02-1.9472,6.4619-1.1273,9.7226-1.481,6.2744,5.5827,6.6473,10.8986,1.2088,17.1877-.7483.8654-1.4835,1.7422-2.2247,2.6137a1.2937,1.2937,0,0,0-.8195.3894,2.7968,2.7968,0,0,1-1.3247,1.7623,2.7958,2.7958,0,0,0,1.3243-1.7622A20.7866,20.7866,0,0,1,84.3192,117.5023Zm.6051,84.6623c.1926.4089.5813.92.9641,1.0064.9361.2117,1.41-.42,1.8255-1.2339a26.5418,26.5418,0,0,0,2.3617-9.5431c.2283-2.1757-.1736-5.6779,2.4036-5.7671,2.3791-.0823.61,3.3439,1.4579,5.0027a6.294,6.294,0,0,0,.5714.7951,1.0679,1.0679,0,0,0,.0641.7519c-3.013,3.7646-.2094,8.06-1.0691,12.036-.2006.928.3623,2.0145.1862,2.9555-.4257,2.2737,1.3531,5.5007-1.7587,6.6224-3.16,1.139-6.2069-.0429-8.2965-2.7966-4.02-5.2982-4.89-11.2871-3.4752-17.6682,1.1091-5.0037,2.4025-9.9682,3.4289-14.988.5106-2.4972.6736-5.6685,3.9194-5.2975,4.1284.4718,1.2768,3.9346,1.7411,6.0217h0q-.4116,2.1021-.8231,4.2042,6.4861-.0155,6.9265,3.8434-.4431-3.8623-6.9272-3.8427C84.4861,188.5567,82.7225,197.4883,84.9243,202.1646Zm35.6878-90.1539c-6.391-1.8026-8.95-5.8808-8.7771-12.1855.1521-5.548,4.4279-6.6949,7.92-8.8716l.0293-.0237.0005-.0011c9.6161.3937,15.2512,7.8376,11.4137,15.0807C128.64,110.8384,124.592,113.1333,120.6121,112.0107Zm5.3781,3.3433a2.38,2.38,0,0,0-1.8305-.76c-.8534.0253-1.933.0413-2.1727.8456.24-.8043,1.319-.8208,2.17-.8493A2.3918,2.3918,0,0,1,125.99,115.354Zm-6.9872,39.68q-.3791.3678-.76.7382l.76-.7384ZM200.76,64.536a2.8558,2.8558,0,0,1,.74-.0532c1.1336,2.2342,3.6666,1.9616,5.47,3.0087,3.6679,2.13,4.376,5.3393,2.9887,8.845-1.4394,3.6376-6.6865,6.2814-9.3858,4.8028-3.2922-1.8034-5.1294-4.7047-3.594-8.6909C198.03,69.7175,197.0316,65.9891,200.76,64.536Zm-2.114-2.0971a3.3527,3.3527,0,0,1,1.3229.7787A3.3609,3.3609,0,0,0,198.6459,62.4389Zm10.35,1.66a1.4781,1.4781,0,0,0,.9379-.4815A1.4786,1.4786,0,0,1,208.9964,64.0992Zm-15.21-16.01c-.5079,1.6085.6428,3.85,1.3176,5.7,1.3739,3.7671-.1176,5.9611-3.593,7.2465-2.2552.6169-4.3857.8226-5.68-1.7243l.2224-.1767-.0935-.27.1081-.1185c3.3148-.7888,2.53-4.1657,3.8223-6.2291,1.7719-2.829-.4226-3.7559-2.61-3.25-2.4375.5637-5.1875,1.4965-4.899,5.0235a39.3941,39.3941,0,0,1-4.3765,4.1475c-2.0685,1.485-2.91.4793-3.8022-1.1361a.6494.6494,0,0,0-.3633-1.0218,5.795,5.795,0,0,0-.084-1.8483c-.9068-2.4724-2.1628-5.9425-4.9391-5.0262-2.5632.8459-.9248,4.1121-.1809,6.3249.1384,3.3838-1.5723,4.8144-4.8494,4.5908a2.032,2.032,0,0,1-.3944.033,2.0393,2.0393,0,0,0,.3943-.0331c-3.427-3.4636-5.1615-8.0551-7.9568-11.94-1.6108-2.2389-.3664-2.8468,1.7168-3.0176,1.0293-.0844,2.0627-.226,3.0955-.3642h33.1948C194.2421,45.516,194.3055,46.4459,193.7865,48.0893ZM177.1887,68.9681a2.3213,2.3213,0,0,0-.5017-3.3736,2.3231,2.3231,0,0,1,.5039,3.3739l.1035-.0961h.0014q.6523.4353,1.3034.8716.6129,1.3608,1.2259,2.7228c.4649-.1721,1.0383-.2453,1.464-.4542-.4257.2089-.9991.2824-1.4639.4554-.6553,2.4991-1.25,5.0161-1.983,7.4924a6.4308,6.4308,0,0,1-4.9906,4.3361c-2.26.5636-3.6875-1.2934-4.8663-2.8133-2.6594-3.429-4.5074-7.3989-1.5615-11.33C169.2947,66.3209,173.3284,67.0074,177.1887,68.9681Zm-5.425-13.9088a23.0329,23.0329,0,0,1,2.0711,1.2863v0A22.9931,22.9931,0,0,0,171.7637,55.0593Zm6.8744,89.6315c-.9991.1168-1.6377.622-1.691,1.5134.0532-.8915.6911-1.3968,1.6841-1.5141Zm31.9546,109.9427c.3209,3.6168-3.9352,6.4758-9.6947,6.5616-3.9982.9513-3.5457-2.4293-3.6886-4.8984a6.2365,6.2365,0,0,1,6.5862-6.4478C206.7325,250.1317,210.2385,250.64,210.5927,254.6335ZM184.059,280.7183c-5.5656-4.1-11.1947-7.3362-10.1908-15.0885.9591.3042,2.1662-.35,2.9186.7561.5728.2,1.1764.3435,1.7361.5658-.56-.2222-1.1632-.3655-1.7356-.5646a1.6016,1.6016,0,0,0-.0772.4868c1.1212,6.9809,1.115,6.9672,7.1357,3.7642.7378-.3926,1.5775-1.6689,2.4333-.2869.5982.966.9965,2.1019-.0785,3.16C184.3622,275.32,183.6086,277.5619,184.059,280.7183ZM164.8415,246.38c-.5338-4.1579,1.7906-6.6941,4.9894-8.234,3.1326-1.5081,6.0976.2143,8.5371,2.2023,2.5466,2.0751,1.4109,7.7883-1.8512,9.6321-1.1264.6367-2.5684.7273-3.2063,2.1006l-1.7338.257c-1.1564,1.73-4.0879,2.1513-4.8069,4.225.719-2.0737,3.65-2.4949,4.8059-4.2248C167.9432,251.923,165.3625,250.438,164.8415,246.38Zm1.4986,33.2951c1.69-.83,3.47-2.2682,5.4784-.9707a54.3762,54.3762,0,0,1,4.5794,3.7635c-2.9332.7663-4.3637,3.323-7.2394,2.05-1.3715-.6071-3.4718.3553-4.0713-1.8852A2.4831,2.4831,0,0,1,166.34,279.6755Zm25.0887-4.2816c1.1582-.8945,2.7466-1.6258,3.9048.0029,1.0452,1.47,1.1574,3.2642-.4148,4.4267-2.5151,1.8595-5.1768,3.8657-8.8644.4422C188.0312,278.4479,189.6259,276.786,191.4288,275.3939Zm-34.4713-2.7393c-.1-1.5674-.5986-4.2139,1.4331-3.9861a8.4851,8.4851,0,0,1,5.6637,3.2988c1.2941,1.7815-.1485,2.7329-1.0722,3.7851-5.6858,6.4765-12.5635,6.4378-16.9145-.0531-.9624-1.4356-1.6506-3.0222-.8141-4.6361.78-1.5054,2.44-1.4947,3.9537-1.5,2.8358-.3559,2.9274,1.96,3.77,3.6977.6027,1.2431,1.1655,3.3284,2.6187,3.1307C157.3562,276.1516,157.0542,274.18,156.9575,272.6546ZM274.61,193.3488a5.4162,5.4162,0,0,1,.523.2974,5.4162,5.4162,0,0,0-.523-.2974c-.5015.7259-.8788,1.6127-1.9965,1.54-3.2342.8535-6.4583,1.7484-9.7052,2.5508-5.0277,1.2425-11.2911-1.2214-13.9762-5.4352-2.8579-4.4851-2.1435-8.0538,2.2774-13.4119,4.403-5.3365,10.016-7.7176,16.8364-8.0115,7.9832-.344,11.8629,9.7841,9.2276,16.015C276.34,188.804,274.3179,190.65,274.61,193.3488Zm37.64-33.8179c-.2611,5.283-6.9807,11.3417-12.1342,10.9408-3.8123-.2965-9.4488-7.7509-9.3021-12.3023.1125-3.4867,6.7433-8.9961,10.59-8.7988C306.3361,149.6237,312.4557,155.3563,312.25,159.5309Zm-3.5114-25.0525c-.361,2.1562-2.2244,3.4059-3.1529,5.22-3.5718.0255-7.2736.79-10.25-2.1547-5.8871-5.8239-6.022-9.0572-.5455-15.1841l0,0a5.8014,5.8014,0,0,1,3.7367-1.102C308.2286,120.3427,309.4744,127.396,308.7381,134.4784Zm3.0674,3.6891a7.399,7.399,0,0,0,.4154-.897A7.406,7.406,0,0,1,311.8055,138.1675Zm-8.4894-67.7927c.0867-7.0873,3.8458-11.3339,11.7364-12.7555,3.7485-.6753,8.3487,5.6239,8.5767,11.33.1611,4.0322-5.2549,9.4264-9.6225,9.5836C308.9541,78.7147,303.2649,74.5665,303.3161,70.3748Z"/>
      </g>
    </g>
  </g>
</svg>
